<?xml version="1.0" encoding="UTF-8" standalone="no"?>
<svg
   version="1.1"
   style="display:block"
   viewBox="0 0 1903.9945 424.16733"
   width="951.99725"
   height="212.08366"
   preserveAspectRatio="none"
   id="svg197"
   sodipodi:docname="transparent logo v3.svg"
   inkscape:version="1.4.3 (0d15f75, 2025-12-25)"
   xmlns:inkscape="http://www.inkscape.org/namespaces/inkscape"
   xmlns:sodipodi="http://sodipodi.sourceforge.net/DTD/sodipodi-0.dtd"
   xmlns="http://www.w3.org/2000/svg"
   xmlns:svg="http://www.w3.org/2000/svg">
  <sodipodi:namedview
     id="namedview197"
     pagecolor="#ffffff"
     bordercolor="#000000"
     borderopacity="0.25"
     inkscape:showpageshadow="2"
     inkscape:pageopacity="0.0"
     inkscape:pagecheckerboard="0"
     inkscape:deskcolor="#d1d1d1"
     inkscape:zoom="2.0871757"
     inkscape:cx="256.80636"
     inkscape:cy="159.7853"
     inkscape:window-width="1920"
     inkscape:window-height="1017"
     inkscape:window-x="-8"
     inkscape:window-y="-8"
     inkscape:window-maximized="1"
     inkscape:current-layer="svg197"
     showguides="true" />
  <defs
     id="defs2">
    <linearGradient
       id="Gradient1"
       gradientUnits="userSpaceOnUse"
       x1="648.23401"
       y1="1751.11"
       x2="624.05402"
       y2="1740.3199"
       gradientTransform="matrix(0.7675229,0,0,0.7675229,-69.874507,192.9885)">
      <stop
         class="stop0"
         offset="0"
         stop-opacity="1"
         stop-color="rgb(42,63,83)"
         id="stop1" />
      <stop
         class="stop1"
         offset="1"
         stop-opacity="1"
         stop-color="rgb(64,86,113)"
         id="stop2" />
    </linearGradient>
  </defs>
  <g
     id="g10"
     transform="translate(-99.460547,-430.25756)">
    <g
       id="g199"
       transform="matrix(0.54222588,0,0,0.54222588,-16.192321,239.88445)">
      <path
         fill="#274262"
         d="m 1699.36,439.88475 c 19.48,-1.288 34.29,12.328 37.66,31.081 4.72,26.233 8.65,52.605 13.3,78.863 l 34.76,198.768 26.26,149.344 c 4.71,26.68 11.27,56.38 12.34,83.52 0.37,9.39 -7.63,21.17005 -14.86,26.56005 -7.08,5.28 -14.6,7.11 -23.12,8.84 -20.73,4.01 -41.74,7.45 -62.56,11.21 l -161.63,28.49 -361.68,63.92 c -23.66,4.09 -53.12,11.39 -77.37,12.88 -2.93,0.18 -5.72,-4.24 -7.13,-6.75 -0.47,-1.61 -0.79,-2.79 -1.1,-4.46 -8.56,-45.58 -15.87,-91.39 -24,-137.03005 l -9.48,-53.46 c -1.97,-11.2 -3.9,-21.68 -5.07,-33.02 -2.18,-21.06 20.7,-21.78 36.4,-24.61 -7.38,-12.27 -15.43,-68.465 -15.14,-83.311 -15.13,3.737 -37,9.78 -40.13,-13.224 -3.13,-23.002 -14.59,-53.306 -7.8,-75.385 2.34,-7.582 31.22,-10.507 38.15,-11.624 -2.24,-5.981 -7.24,-29.478 -7.77,-35.807 -1.34,-16.154 -19.28,-90.414 -14.15,-101.309 16.37,-6.68 67.17,-14.006 88.04,-17.643 l 152.7,-26.846 274.93,-48.176 c 36.7,-6.363 82.29,-16.149 118.45,-20.821 z"
         id="path3" />
      <path
         fill="#4b6f9c"
         d="m 1073.09,570.72675 c -0.59,-3.869 -1.39,-6.719 -0.49,-10.503 3.69,-3.169 48.72,-10.094 56.88,-11.745 13.27,-2.68 31.05,-5.514 44.56,-7.869 l 367.74,-64.484 c 36.42,-6.655 72.89,-12.993 109.42,-19.014 27.8,-4.844 76.27,-23.856 77.92,21.196 l 49.15,283.182 21.98,122.441 c 3.4,19.97 7.34,40.01 9.18,60.17 3.03,33.07 -27.95,34.23 -51.57,38.46 l -462.02,81.87005 -106.71,18.9 c -22.32,3.87 -48.86,8.07 -70.83,13.13 -1.05,-9.85 -2.31,-17.93 -3.97,-27.61 26.68,-2.7 52.9,-8.45 79.21,-13.38 l 78.52,-14.03 c 22.74,-4.18 47.44,-6.92 69.81,-13.02 5.03,-1.37 7.88,-4.68 11.21,-8.61 4.47,1.72 8.49,3.23 13.36,3.33 12.15,0.25 73.78,-10.68 84.79,-15.02 1.6,-0.64 2.55,-1.47 3.82,-2.58 1.93,-1.69 4.18,-4.69 6.89,-4.24 3.67,0.61 6.76,3.32 10.73,3.28 9.19,-0.1 76.89,-12.33005 84.58,-15.74005 2.52,-1.12 5.65,-5.79 7.75,-6.34 2.62,-0.7 15.29,4.16 24,2.41 12.06,-2.42 65.89,-10.41 74.12,-15.86 2.85,-1.88 5.74,-3.7 8.58,-5.6 2.24,0.69 10.2,3.6 11.94,3.35 13.59,-1.94 27.22,-4.37 40.71,-7.34 14.97,-3.29 32.19,-4.26 46.03,-10.95 7.67,-3.71 8.46,-12.64 7.13,-19.98 -3.67,-23.26 -8.1,-46.39 -12,-69.62 l -30.39,-174.335 -20.64,-116.564 c -3.46,-19.861 -6.33,-39.849 -10.24,-59.643 -2.36,-11.968 -4.33,-14.38 -14.52,-20.611 -13.49,-0.551 -29.84,3.373 -43.24,6.06 -32.35,6.489 -65.27,11.09 -97.37,18.618 -5.99,1.406 -10.63,4.671 -15.5,8.171 -21.91,-6.054 -59.28,5.138 -81.94,9.934 -2.27,0.481 -6.39,7.595 -10.24,8.128 -1.43,-0.501 -13,-4.619 -14.3,-4.402 -21.48,3.586 -44.89,7.953 -66.06,12.839 -1.82,0.419 -10.96,7.704 -12.62,9.019 -1.54,-0.821 -8.06,-5.046 -9.16,-4.958 -20.3,1.636 -44.48,6.644 -64.26,11.291 -8.22,1.931 -12.73,5.94 -17.36,10.826 -4.73,-4.119 -6.61,-6.318 -13.39,-5.456 -21.86,2.774 -44.07,7.974 -65.74,12.168 -4.67,0.904 -9.24,6.559 -12.1,9.155 -0.3,0.276 -6.96,-3.299 -8.24,-4.022 l -1.52,0.009 c -16.73,0.239 -62.63,9.225 -77.91,15.243 -1.34,-4.494 -5.72,-25.538 -5.68,-29.654 z"
         id="path4" />
      <path
         fill="#86abc5"
         d="m 1073.09,570.72675 c -0.59,-3.869 -1.39,-6.719 -0.49,-10.503 3.69,-3.169 48.72,-10.094 56.88,-11.745 13.27,-2.68 31.05,-5.514 44.56,-7.869 l 367.74,-64.484 c 36.42,-6.655 72.89,-12.993 109.42,-19.014 27.8,-4.844 76.27,-23.856 77.92,21.196 -5.1,-7.736 -10.89,-15.017 -20.57,-16.869 -15.27,-2.924 -89,13.488 -110.4,17.259 -52.67,8.782 -105.26,18.004 -157.77,27.666 z"
         id="path5"
         style="fill:#8da7ce;fill-opacity:1" />
      <path
         fill="#fb8c4b"
         d="m 1325.07,939.16075 c 17.38,-1.25 15.35,35.88 18.77,48.45 4.36,15.99005 9.66,33.35005 -12.43,35.14005 -67.04,11.87 -133.88,24.11 -200.91,35.94 -6.36,1.12 -15.67,1.83 -18.22,-5.21 -5.97,-16.48 -7.42,-36.33 -10.8,-53.54005 -2.2,-15.61 -2.96,-20.95 14.6,-24 l 122.93,-22.24 c 23.02,-4.34 64.37,-12.87 86.06,-14.54 z"
         id="path6" />
      <path
         fill="#f6732c"
         d="m 1325.07,939.16075 c 17.38,-1.25 15.35,35.88 18.77,48.45 4.36,15.99005 9.66,33.35005 -12.43,35.14005 -67.04,11.87 -133.88,24.11 -200.91,35.94 -6.36,1.12 -15.67,1.83 -18.22,-5.21 -5.97,-16.48 -7.42,-36.33 -10.8,-53.54005 -2.2,-15.61 -2.96,-20.95 14.6,-24 l -0.41,4.38 c -0.12,10.12 6.12,50.69005 12.65,57.64005 14.74,1.84 62.93,-9.01 79.8,-11.93 l 72.01,-12.53 c 10.35,-1.82 46.03,-6.73 51.36,-12.49 1.88,-13.31005 -3.67,-32.40005 -5.15,-46.38005 -0.55,-5.16 -0.77,-10.87 -1.27,-15.47 z"
         id="path7" />
      <path
         fill="#dd683c"
         d="m 1116.08,975.94075 -0.41,4.38 c -9.9,6.29 -10.63,8.03 -14.19,19.62 -2.2,-15.61 -2.96,-20.95 14.6,-24 z"
         id="path8" />
      <path
         fill="#86abc5"
         d="m 1729.14,770.86475 c 3.79,-0.169 6.65,-0.203 9.82,2.274 6.81,5.328 14.59,56.902 14.81,66.782 0.08,3.65 -0.18,7.02 -2.84,9.77 -1.47,1.51 -3.19,2.91 -5.23,3.53 -16.64,5.09 -36.1,6.7 -53.3,9.82 -28.07,5.3 -56.2,10.25 -84.39,14.87 -15.03,2.6 -30.36,6.15 -45.59,6.73 -10.92,0.42 -11.29,-15.99 -12.27,-23.48 -2.01,-15.26 -7.12,-30.71 -6.93,-46.08 0.23,-9.131 5.84,-11.377 13.61,-13.139 22.37,-4.659 44.03,-7.782 66.38,-11.744 z"
         id="path9"
         style="fill:#8da7ce;fill-opacity:1" />
      <path
         fill="#5a849f"
         d="m 1729.14,770.86475 c 3.79,-0.169 6.65,-0.203 9.82,2.274 6.81,5.328 14.59,56.902 14.81,66.782 0.08,3.65 -0.18,7.02 -2.84,9.77 -1.47,1.51 -3.19,2.91 -5.23,3.53 -16.64,5.09 -36.1,6.7 -53.3,9.82 -28.07,5.3 -56.2,10.25 -84.39,14.87 -15.03,2.6 -30.36,6.15 -45.59,6.73 -10.92,0.42 -11.29,-15.99 -12.27,-23.48 -2.01,-15.26 -7.12,-30.71 -6.93,-46.08 0.23,-9.131 5.84,-11.377 13.61,-13.139 0.94,16.659 5.04,46.009 11.86,61.329 2.63,5.91 37.01,-2.42 43.54,-3.51 l 82,-13.96 c 12.44,-2.2 40.47,-4.74 49.36,-12.06 3.21,-7.5 -6.16,-46.094 -8.45,-55.628 -1,-4.146 -2.59,-5.743 -6,-7.248 z"
         id="path10"
         style="fill:#7892c0;fill-opacity:1" />
      <path
         fill="#4b6f9c"
         d="m 1813.72,966.42075 c 2.33,3.16 1.32,9.4 1.93,12.9 1.13,4.72 -4.7,14.96 -8,18.25 -14.51,14.42005 -53.17,15.51005 -72.14,18.98005 l -97.41,17.13 c -13.86,2.52 -27.39,6.03 -41.67,8.52 -15.17,2.65 -32.03,3.62 -46.41,6.29 l -270.8,48.68 -85.74,15.04 c -26.11,4.72 -41.21,9.4 -69.61,12.4 l -4.36,-20.92 c 32.11,-3.38 77.28,-13.58 109.99,-19.35 l 241.52,-42.78 205.98,-36.3 73.18,-12.79005 c 26.1,-4.79 45.69,-4.09 63.54,-26.05 z"
         id="path11" />
      <path
         fill="#fb8c4b"
         d="m 1577.72,704.07175 c 36.92,-5.687 101.52,-21.209 140.96,-24.61 2.56,-0.22 5.93,3.185 7.49,5.994 5.24,8.705 11.81,57.926 11.29,70.47 -0.09,2.211 -3.72,4.246 -5.81,4.756 -45.26,11.02 -92.29,16.664 -138.08,25.646 -10.08,1.977 -15.96,0.04 -18.37,-10.268 -4.45,-19.748 -7.17,-39.793 -10.26,-59.739 -1.21,-7.824 6.81,-10.95 12.78,-12.249 z"
         id="path12" />
      <path
         fill="#f6732c"
         d="m 1577.72,704.07175 c 6.08,17.247 5.77,47.768 15.17,61.51 0.75,1.096 6.13,0.875 7.39,0.74 14.01,-1.502 120.64,-18.228 126.32,-24.279 3.55,-9.158 -3.66,-47.287 -5.87,-58.41 l 1.07,-0.663 3.32,3.452 1.05,-0.966 c 5.24,8.705 11.81,57.926 11.29,70.47 -0.09,2.211 -3.72,4.246 -5.81,4.756 -45.26,11.02 -92.29,16.664 -138.08,25.646 -10.08,1.977 -15.96,0.04 -18.37,-10.268 -4.45,-19.748 -7.17,-39.793 -10.26,-59.739 -1.21,-7.824 6.81,-10.95 12.78,-12.249 z"
         id="path13" />
      <path
         fill="#86abc5"
         d="m 1556.45,518.76075 c 30.74,-6.413 62.22,-11.127 93.07,-17.178 11.46,-2.247 24.08,-4.746 35.6,-5.759 4.11,1.597 7.91,3.203 9.3,7.723 6.14,19.897 8.91,45.412 12.66,66.037 -1.71,3.37 -4.44,8.963 -8.78,9.645 -42.96,6.755 -84.98,15.972 -128.04,22.464 -20.27,3.057 -18.28,-7.011 -22.1,-23.615 -2.42,-10.497 -3,-21.886 -5.18,-32.478 -0.53,-3.277 -2.34,-10.07 -2.43,-12.872 -0.13,-3.333 1.11,-6.574 3.44,-8.965 3.62,-3.699 7.59,-4.278 12.46,-5.002 z"
         id="path14"
         style="fill:#8da7ce;fill-opacity:1" />
      <path
         fill="#5a849f"
         d="m 1685.12,495.82375 c 4.11,1.597 7.91,3.203 9.3,7.723 6.14,19.897 8.91,45.412 12.66,66.037 -1.71,3.37 -4.44,8.963 -8.78,9.645 -42.96,6.755 -84.98,15.972 -128.04,22.464 -20.27,3.057 -18.28,-7.011 -22.1,-23.615 -2.42,-10.497 -3,-21.886 -5.18,-32.478 -0.53,-3.277 -2.34,-10.07 -2.43,-12.872 -0.13,-3.333 1.11,-6.574 3.44,-8.965 3.62,-3.699 7.59,-4.278 12.46,-5.002 -2.89,9.902 4.49,59.432 14.04,64.703 5.43,0.028 10.71,-0.959 16.07,-1.926 31.74,-5.721 63.66,-10.982 95.27,-17.294 4.19,-0.835 10.14,-3.4 13.7,-5.572 1.94,-6.351 -7.45,-56.132 -10.41,-62.848 z"
         id="path15"
         style="fill:#7892c0;fill-opacity:1" />
      <path
         fill="#b0d3e0"
         d="m 1621.84,601.97975 c 20.66,-3.647 58.99,-12.33 78.16,-13.602 8.41,1.539 13.16,7.841 13.26,15.658 0.13,11.694 11.35,52.716 8.52,59.968 -15.94,14.022 -66.01,14.468 -84.18,20.268 -20.07,6.407 -24.58,-7.501 -24.59,-22.054 -0.01,-21.286 -21.08,-55.135 8.83,-60.238 z"
         id="path16" />
      <path
         fill="#86abc5"
         d="m 1700,588.37775 c 8.41,1.539 13.16,7.841 13.26,15.658 0.13,11.694 11.35,52.716 8.52,59.968 -15.94,14.022 -66.01,14.468 -84.18,20.268 -20.07,6.407 -24.58,-7.501 -24.59,-22.054 -0.01,-21.286 -21.08,-55.135 8.83,-60.238 -4.6,11.887 1.65,26.335 3.34,38.534 1.36,9.765 1.7,29.125 15.92,25.986 13.73,-3.031 62.23,-6.89 70.94,-17.078 2.15,-9.468 -3.26,-24.227 -4.71,-34.091 -1.3,-8.933 0.11,-20.975 -7.33,-26.953 z"
         id="path17"
         style="fill:#8da7ce;fill-opacity:1" />
      <path
         fill="#86abc5"
         d="m 1361.79,931.67075 c 18.31,-4.62 50.71,-9.45 69.79,-12.54 4.45,1.16 8.41,1.56 10.89,5.81 3.15,5.38 12.64,63.5 10.7,69.08 -1.21,3.48 -3.73,5.87 -7.16,7.19005 -10.26,3.95 -76.68,15.84 -84.46,12.65 -2.59,-1.06 -4.34,-5.02 -5.07,-7.55 -1.65,-5.79 -2.02,-12.25005 -3.14,-18.19005 -2.32,-12.3 -6.24,-25.75 -6.91,-38.18 -0.21,-3.73 0.13,-8.36 2.07,-11.66 2.72,-4.64 6.32,-5.23 11.2,-6.23 0.7,-0.14 1.39,-0.27 2.09,-0.38 z"
         id="path18"
         style="fill:#8da7ce;fill-opacity:1" />
      <path
         fill="#5a849f"
         d="m 1431.58,919.13075 c 4.45,1.16 8.41,1.56 10.89,5.81 3.15,5.38 12.64,63.5 10.7,69.08 -1.21,3.48 -3.73,5.87 -7.16,7.19005 -10.26,3.95 -76.68,15.84 -84.46,12.65 -2.59,-1.06 -4.34,-5.02 -5.07,-7.55 -1.65,-5.79 -2.02,-12.25005 -3.14,-18.19005 -2.32,-12.3 -6.24,-25.75 -6.91,-38.18 -0.21,-3.73 0.13,-8.36 2.07,-11.66 2.72,-4.64 6.32,-5.23 11.2,-6.23 0.7,-0.14 1.39,-0.27 2.09,-0.38 -3.96,8.56 1.41,28.22 2.95,37.74 3.76,23.2 1.95,30.13 27.02,24.38 18.94,-4.35 35.07,-3.45 52.51,-12.7 -0.6,-10.43 -8.23,-53.9 -12.69,-61.96 z"
         id="path19"
         style="fill:#7892c0;fill-opacity:1" />
      <path
         fill="#86abc5"
         d="m 1675.49,875.11075 c 14.3,-2.23 64.6,-13.79 74.88,-12.35 2.9,0.47 5.2,0.67 7.12,3.18 3.39,4.43 11.3,53.46 12.01,61.87 0.31,3.77 0.17,7.07 -0.62,10.76 -2.63,3.08 -7.39,5.77 -11.32,6.59 -23.52,4.92 -47.26,8.77 -71.02,12.51 -16.04,3.43 -15.01,-15.33 -16.83,-26.33 -2.07,-12.47 -5.59,-26.23 -6.86,-38.92 -1.08,-10.8 2.01,-15.76 12.64,-17.31 z"
         id="path20"
         style="fill:#8da7ce;fill-opacity:1" />
      <path
         fill="#5a849f"
         d="m 1750.37,862.76075 c 2.9,0.47 5.2,0.67 7.12,3.18 3.39,4.43 11.3,53.46 12.01,61.87 0.31,3.77 0.17,7.07 -0.62,10.76 -2.63,3.08 -7.39,5.77 -11.32,6.59 -23.52,4.92 -47.26,8.77 -71.02,12.51 -16.04,3.43 -15.01,-15.33 -16.83,-26.33 -2.07,-12.47 -5.59,-26.23 -6.86,-38.92 -1.08,-10.8 2.01,-15.76 12.64,-17.31 0.62,14.16 6.08,48.68 11.96,60.77 3.23,6.66 63.83,-5.93 70.83,-11.71 1.92,-6.64 -5.95,-53.55 -7.91,-61.41 z"
         id="path21"
         style="fill:#7892c0;fill-opacity:1" />
      <path
         fill="#86abc5"
         d="m 1535.58,899.97075 c 4.3,0.49 7.4,0.71 10.43,4.14 3.63,4.12 14.39,64.72 12.38,72.3 -0.75,2.83 -3.06,3.71 -5.59,4.8 -8.74,3.78 -78.07,17.06 -84.14,13.88 -3.56,-1.86 -5.08,-5.67 -5.89,-9.37 -2.27,-10.29 -13.26,-60.23 -8.69,-66.9 2.8,-4.07 8.7,-5.4 13.24,-6.31 22.56,-4.06 45.9,-7.82 68.26,-12.54 z"
         id="path22"
         style="fill:#8da7ce;fill-opacity:1" />
      <path
         fill="#5a849f"
         d="m 1535.58,899.97075 c 4.3,0.49 7.4,0.71 10.43,4.14 3.63,4.12 14.39,64.72 12.38,72.3 -0.75,2.83 -3.06,3.71 -5.59,4.8 -8.74,3.78 -78.07,17.06 -84.14,13.88 -3.56,-1.86 -5.08,-5.67 -5.89,-9.37 -2.27,-10.29 -13.26,-60.23 -8.69,-66.9 2.8,-4.07 8.7,-5.4 13.24,-6.31 -1.71,15.95 5.77,41.98 8.51,58.39 1.84,11.05 62.41,-2.52 69.64,-6.26 6.21,-6.64 0.01,-23.64 -0.88,-32.31 -1.2,-11.77 -2.1,-22.68 -9.01,-32.36 z"
         id="path23"
         style="fill:#7892c0;fill-opacity:1" />
      <path
         fill="#fb8c4b"
         d="m 1571.31,893.63075 c 13.81,-2.49 66,-13.58 75.78,-10.64 1.77,1.44 3.53,2.92 4.55,5 5.56,11.29 9.92,48.37 11.36,62.49 0.38,3.74 0.78,6.38 -1.85,9.4 -5.65,6.49 -69.66,17.09 -80.64,16.6 -3.17,-0.15 -5.52,-0.64 -8.36,-2.04 -5.3,-6.84 -6.62,-18.95 -8,-27.46 -2.37,-14.53 -5.51,-29.46 -5.66,-44.17 -0.07,-6.82 8.08,-8.42 12.82,-9.18 z"
         id="path24" />
      <path
         fill="#f6732c"
         d="m 1647.09,882.99075 c 1.77,1.44 3.53,2.92 4.55,5 5.56,11.29 9.92,48.37 11.36,62.49 0.38,3.74 0.78,6.38 -1.85,9.4 -5.65,6.49 -69.66,17.09 -80.64,16.6 -3.17,-0.15 -5.52,-0.64 -8.36,-2.04 -5.3,-6.84 -6.62,-18.95 -8,-27.46 -2.37,-14.53 -5.51,-29.46 -5.66,-44.17 -0.07,-6.82 8.08,-8.42 12.82,-9.18 1.16,11.25 7.97,53.92 13.25,61.42 9.27,4.93 54.34,-5.98 66.09,-8.47 2.79,-25.45 -7.85,-44.53 -3.56,-63.59 z"
         id="path25" />
      <path
         fill="#f6732c"
         d="m 1612.9,918.60075 c 5.17,-1.75 14.48,-5.38 16.94,4.54 0.6,2.4 0.42,6.77 -0.76,8.98 -4.66,0.93 -6.71,1.03 -11.31,0.16 l -1.51,-0.78 c -1.28,-4.45 -2.33,-8.4 -3.36,-12.9 z"
         id="path26" />
      <path
         fill="#0d0403"
         d="m 1612.9,918.60075 c 5.17,-1.75 14.48,-5.38 16.94,4.54 0.6,2.4 0.42,6.77 -0.76,8.98 -3.57,-6.24 -1.38,-9.15 -8.52,-13.68 l -1.63,1.17 c -2.43,5.35 -1.48,6.91 -1.16,12.67 l -1.51,-0.78 c -1.28,-4.45 -2.33,-8.4 -3.36,-12.9 z"
         id="path27" />
      <path
         fill="#0d0403"
         d="m 1604.54,911.67075 2.85,-0.08 0.7,1.02 c -4.23,1.6 -6.37,1.88 -9.12,5.37 -0.48,3.53 -0.94,2.04 0.55,4.78 2.9,0.02 4.65,-0.09 7.49,-0.31 l 0.97,1.13 c -3.02,2.36 -3.92,1.73 -8.39,2.35 l 1.09,8.69 -1.22,1.31 1.25,-0.26 -1.01,0.85 c -3.11,-4.11 -5.79,-15.88 -5.21,-21.49 2.28,-2.21 6.71,-2.66 10.05,-3.36 z"
         id="path28" />
      <path
         fill="#b0d3e0"
         d="m 1429.95,825.05075 c 4.53,1.39 8.23,2 10.69,6.41 4.3,7.72 13.52,63.53 10.63,70.49 -1.21,2.91 -3.07,4.66 -6.03,5.71 -10.55,3.74 -61.91,12.07 -71.36,8.96 -7.11,-7.18 -10.3,-41.57 -12.66,-52.97 -2.59,-12.55 -5.41,-24.42 10.33,-28.22 16.89,-2.22 40.83,-7.29 58.4,-10.38 z"
         id="path29" />
      <path
         fill="#86abc5"
         d="m 1429.95,825.05075 c 4.53,1.39 8.23,2 10.69,6.41 4.3,7.72 13.52,63.53 10.63,70.49 -1.21,2.91 -3.07,4.66 -6.03,5.71 -10.55,3.74 -61.91,12.07 -71.36,8.96 -7.11,-7.18 -10.3,-41.57 -12.66,-52.97 -2.59,-12.55 -5.41,-24.42 10.33,-28.22 1.54,9.07 6.48,60.87 14.7,63.32 10.14,3.02 37.79,-2.85 48.77,-6.55 13.56,-4.57 5.64,-17.75 4.6,-27.67 -2.9,-12.84 -2.65,-28.31 -9.67,-39.48 z"
         id="path30"
         style="fill:#8da7ce;fill-opacity:1" />
      <path
         fill="#8da7ce"
         d="m 1527.76,619.31075 c 20.17,-4.356 37.75,-7.683 58.19,-10.472 4.34,1.714 6.83,3.153 8.66,7.597 3.17,7.696 14.13,62.194 11.7,68.286 -1.61,4.037 -4.63,5.414 -8.47,6.614 -9.25,2.887 -61.72,13.516 -68.83,9.83 -6.38,-3.307 -8.56,-23.19 -9.76,-30.051 -1.55,-8.834 -8.56,-38.906 -4.68,-45.752 2.02,-3.574 6.83,-4.396 10.42,-5.334 l 1.73,-0.459 z"
         id="path31"
         style="opacity:1" />
      <path
         fill="#7892c0"
         d="m 1585.95,608.83875 c 4.34,1.714 6.83,3.153 8.66,7.597 3.17,7.696 14.13,62.194 11.7,68.286 -1.61,4.037 -4.63,5.414 -8.47,6.614 -9.25,2.887 -61.72,13.516 -68.83,9.83 -6.38,-3.307 -8.56,-23.19 -9.76,-30.051 -1.55,-8.834 -8.56,-38.906 -4.68,-45.752 2.02,-3.574 6.83,-4.396 10.42,-5.334 l 1.73,-0.459 1.04,-0.259 c -1.14,12.462 4.76,52.352 10.02,62.135 6.95,5.813 50.51,-2.101 57.47,-9.723 2.08,-6.88 -7.38,-52.586 -9.3,-62.884 z"
         id="path32" />
      <path
         fill="#b0d3e0"
         d="m 1209.84,770.69775 c 16.77,-3.435 40.13,-7.439 57.03,-9.74 4.26,0.511 7.87,0.67 10.98,3.993 4.33,4.632 13.54,61.55 12.39,69.05 -0.45,2.99 -2.11,6.06 -4.79,7.58 -6.72,3.81 -64.95,13.78 -72.15,11.7 -1.68,-0.49 -2.66,-2.64 -3.38,-4.15 -4.18,-8.77 -14.77,-62.86 -11.57,-70.322 1.65,-3.851 4.67,-5.844 8.5,-7.227 0.98,-0.356 1.97,-0.652 2.99,-0.884 z"
         id="path33" />
      <path
         fill="#86abc5"
         d="m 1266.87,760.95775 c 4.26,0.511 7.87,0.67 10.98,3.993 4.33,4.632 13.54,61.55 12.39,69.05 -0.45,2.99 -2.11,6.06 -4.79,7.58 -6.72,3.81 -64.95,13.78 -72.15,11.7 -1.68,-0.49 -2.66,-2.64 -3.38,-4.15 -4.18,-8.77 -14.77,-62.86 -11.57,-70.322 1.65,-3.851 4.67,-5.844 8.5,-7.227 0.98,-0.356 1.97,-0.652 2.99,-0.884 2.39,18.926 5.67,46.353 12.97,63.873 1.85,4.44 27.26,-1.5 31.73,-2.23 11.6,-1.89 17.87,-0.75 26.34,-9.94 -0.77,-13.472 -7.47,-40.609 -9.93,-55.264 -0.23,-1.36 -3.04,-4.909 -4.08,-6.179 z"
         id="path34"
         style="fill:#8da7ce;fill-opacity:1" />
      <path
         fill="#7892c0"
         d="m 1249.56,817.70075 c 3.8,-0.39 5.24,-0.73 7.9,1.23 l -0.72,1.78 c -3.39,2.45 -5.11,2.02 -9.53,2.16 -2.49,1.21 -4.68,1.13 -7.03,0.05 l 0.2,-1.94 c 2.62,-2.8 5.27,-2.67 9.18,-3.28 z"
         id="path35" />
      <path
         fill="#8da7ce"
         d="m 1448.66,727.11175 c 4.07,-0.047 11.51,0.242 12.97,3.805 5.05,12.313 14.28,62.683 12.18,73.352 -6.5,8.542 -48.22,12.252 -60.33,14.932 -7.67,1.7 -19.94,3.01 -21.74,-7.56 -3.16,-18.511 -6.62,-36.998 -9.21,-55.592 -1.29,-9.834 0.84,-16.266 10.79,-18.739 17.48,-3.81 37.5,-6.864 55.34,-10.198 z"
         id="path36"
         style="opacity:1" />
      <path
         fill="#7892c0"
         d="m 1448.66,727.11175 c 4.07,-0.047 11.51,0.242 12.97,3.805 5.05,12.313 14.28,62.683 12.18,73.352 -6.5,8.542 -48.22,12.252 -60.33,14.932 -7.67,1.7 -19.94,3.01 -21.74,-7.56 -3.16,-18.511 -6.62,-36.998 -9.21,-55.592 -1.29,-9.834 0.84,-16.266 10.79,-18.739 3.74,18.464 6.16,44.855 12.84,62.029 2.44,6.263 54.74,-3.761 55.86,-8.648 3.41,-14.869 -2.79,-42.431 -7.37,-57.677 -0.45,-1.434 -4.73,-4.886 -5.99,-5.902 z"
         id="path37" />
      <path
         fill="#86abc5"
         d="m 1354.57,744.05775 c 16.63,-1.875 18.14,9.298 19.8,23.53 1.54,13.206 10.8,42.191 6.71,53.923 -8.16,7.24 -60.77,16.11 -72.79,15.42 -2.49,-0.15 -4.32,-0.95 -5.96,-2.9 -3.93,-4.66 -13.95,-63.299 -12.85,-70.681 0.32,-2.115 1.25,-4.27 3.04,-5.561 2.3,-1.66 5.64,-2.708 8.3,-3.75 z"
         id="path38"
         style="fill:#8da7ce;fill-opacity:1" />
      <path
         fill="#8da7ce"
         d="m 1354.57,744.05775 c 16.63,-1.875 18.14,9.298 19.8,23.53 1.54,13.206 10.8,42.191 6.71,53.923 -8.16,7.24 -60.77,16.11 -72.79,15.42 -2.49,-0.15 -4.32,-0.95 -5.96,-2.9 -3.93,-4.66 -13.95,-63.299 -12.85,-70.681 0.32,-2.115 1.25,-4.27 3.04,-5.561 2.3,-1.66 5.64,-2.708 8.3,-3.75 1.36,17.172 6.41,39.582 9.94,56.859 0.48,2.349 2.05,5.853 4.96,6.413 13.92,2.68 36.74,-2.66 50.48,-6.494 1.81,-0.505 4.88,-2.401 4.96,-4.45 0.64,-16.974 -4.15,-42.093 -9.33,-58.343 -1.08,-3.379 -4.79,-3.467 -7.26,-3.966 z"
         id="path39"
         style="opacity:1" />
      <path
         fill="#8da7ce"
         d="m 1485.31,626.04875 c 4.6,-0.645 9.5,-1.378 14.18,1.762 7.67,5.157 18,73.249 12.9,76.093 -14.73,8.21 -50.74,12.266 -69.15,15.055 -5.19,0.86 -10.51,-3.136 -11.08,-8.139 -2.38,-21.026 -10.16,-42.195 -10.23,-63.216 0,-7.427 5.67,-9.881 11.62,-11.557 16.92,-3.474 35.32,-6.04 51.76,-9.998 z"
         id="path40"
         style="opacity:1" />
      <path
         fill="#7892c0"
         d="m 1485.31,626.04875 c 4.6,-0.645 9.5,-1.378 14.18,1.762 7.67,5.157 18,73.249 12.9,76.093 -14.73,8.21 -50.74,12.266 -69.15,15.055 -5.19,0.86 -10.51,-3.136 -11.08,-8.139 -2.38,-21.026 -10.16,-42.195 -10.23,-63.216 0,-7.427 5.67,-9.881 11.62,-11.557 0.86,5.685 2.22,14.381 3.87,20.837 2.95,11.535 2.81,36.162 11.72,43.526 2.49,2.057 19.65,-1.52 23.58,-2.755 10.77,-3.387 25.59,-0.33 31.78,-11.602 0.1,-7.412 -7.33,-51.302 -10.49,-57.156 -3.26,-2.736 -4.2,-2.451 -8.7,-2.848 z"
         id="path41" />
      <path
         fill="#b0d3e0"
         d="m 1465.36,818.37075 c 14.97,-3.43 43.13,-8.298 58.12,-9.368 13.96,5.558 13.06,27.238 16.17,39.798 13.41,54.2 -4.53,40.42 -46.72,50.31 -5.83,1.36 -20.67,3.68 -26.88,0.98 -4.96,-5.99 -6.77,-15.84 -7.9,-23.43 -2.33,-15.71 -6.4,-31.54 -6.54,-47.43 -0.06,-7.32 8.45,-9.61 13.75,-10.86 z"
         id="path42" />
      <path
         fill="#86abc5"
         d="m 1523.48,809.00275 c 13.96,5.558 13.06,27.238 16.17,39.798 13.41,54.2 -4.53,40.42 -46.72,50.31 -5.83,1.36 -20.67,3.68 -26.88,0.98 -4.96,-5.99 -6.77,-15.84 -7.9,-23.43 -2.33,-15.71 -6.4,-31.54 -6.54,-47.43 -0.06,-7.32 8.45,-9.61 13.75,-10.86 -2.77,14.32 2.84,23.14 4.26,37.19 0.8,8 2.04,20.91 7.47,26.97 8.45,1.94 50.85,-4.67 55.29,-10.6 3.68,-4.93 -6.81,-55.72 -8.9,-62.928 z"
         id="path43"
         style="fill:#8da7ce;fill-opacity:1" />
      <path
         fill="#b0d3e0"
         d="m 1517,525.84775 c 3.93,-0.112 6.59,0.019 9.8,2.7 7.67,6.406 14.8,58.012 14.7,69.543 -0.02,2.789 0.1,4.834 -1.93,6.907 -1.49,1.511 -3.07,2.552 -5.07,3.269 -8.56,3.083 -55.9,11.468 -64.6,10.999 -2.89,-0.156 -5.43,-0.745 -7.36,-3.009 -4.47,-5.23 -13.86,-60.359 -12.9,-67.725 0.5,-3.863 1.71,-7.053 4.93,-9.492 2.32,-1.749 5.56,-2.53 8.33,-3.197 15.74,-2.108 37.95,-6.95 54.1,-9.995 z"
         id="path44" />
      <path
         fill="#86abc5"
         d="m 1517,525.84775 c 3.93,-0.112 6.59,0.019 9.8,2.7 7.67,6.406 14.8,58.012 14.7,69.543 -0.02,2.789 0.1,4.834 -1.93,6.907 -1.49,1.511 -3.07,2.552 -5.07,3.269 -8.56,3.083 -55.9,11.468 -64.6,10.999 -2.89,-0.156 -5.43,-0.745 -7.36,-3.009 -4.47,-5.23 -13.86,-60.359 -12.9,-67.725 0.5,-3.863 1.71,-7.053 4.93,-9.492 2.32,-1.749 5.56,-2.53 8.33,-3.197 -0.31,15.305 3.75,31.025 6.17,45.699 2.54,14.669 4.83,24.517 22.29,18.447 10.94,-3.807 32.33,-2.57 39.69,-10.581 2.91,-6.764 -6.27,-42.06 -6.72,-51.092 -0.26,-5.1 -2.33,-10.294 -7.33,-12.468 z"
         id="path45"
         style="fill:#8da7ce;fill-opacity:1" />
      <path
         fill="#86abc5"
         d="m 1371.02,552.88475 c 17.54,-4.075 38.73,-7.391 56.68,-10.656 4.2,0.956 7.67,1.329 10.05,5.346 4.1,6.941 14.24,64.411 11.34,71.193 -1.31,3.08 -3.92,5.239 -7.05,6.251 -10.26,3.322 -60.17,12.101 -68.99,10.491 -8.01,-6.485 -13.04,-51.973 -15.86,-63.249 -2.65,-10.637 3.2,-16.859 13.83,-19.376 z"
         id="path46"
         style="fill:#8da7ce;fill-opacity:1" />
      <path
         fill="#8da7ce"
         d="m 1427.7,542.22875 c 4.2,0.956 7.67,1.329 10.05,5.346 4.1,6.941 14.24,64.411 11.34,71.193 -1.31,3.08 -3.92,5.239 -7.05,6.251 -10.26,3.322 -60.17,12.101 -68.99,10.491 -8.01,-6.485 -13.04,-51.973 -15.86,-63.249 -2.65,-10.637 3.2,-16.859 13.83,-19.376 -0.01,11.2 4.94,57.527 12.36,63.297 9.55,2.014 52.01,-3.504 56.79,-11.934 0.64,-8.951 -7.14,-54.69 -12.47,-62.019 z"
         id="path47"
         style="opacity:1" />
      <path
         fill="#86abc5"
         d="m 1118.9,787.90375 c 15.37,-2.997 42.69,-9.085 57.79,-10.475 2.16,0.565 8.12,1.756 8.91,4.074 3.15,9.289 18.79,74.598 7.8,77.428 -19.47,5.02 -52.31,12.7 -72.09,10.7 -6.8,-0.69 -16.35,-66.301 -15.28,-74.387 3.66,-6.26 5.99,-6.111 12.87,-7.34 z"
         id="path48"
         style="fill:#8da7ce;fill-opacity:1" />
      <path
         fill="#8da7ce"
         d="m 1176.69,777.42875 c 2.16,0.565 8.12,1.756 8.91,4.074 3.15,9.289 18.79,74.598 7.8,77.428 -19.47,5.02 -52.31,12.7 -72.09,10.7 -6.8,-0.69 -16.35,-66.301 -15.28,-74.387 3.66,-6.26 5.99,-6.111 12.87,-7.34 -0.38,10.825 5.82,53.777 11.88,62.427 3.95,5.64 55.99,-2.95 57.1,-8.08 2.28,-10.59 -6.38,-54.344 -11.19,-64.822 z"
         id="path49"
         style="opacity:1" />
      <path
         fill="#8da7ce"
         d="m 1327.81,560.34875 c 5.29,-0.922 16.5,-2.149 18.58,5.164 5.15,18.138 7.11,37.779 10.55,56.292 3.61,19.419 -4.25,20.979 -21.67,23.217 -15.39,1.978 -31.01,6.144 -46.47,7.79 -11.66,1.232 -11.87,-6.517 -14.54,-15.773 -2.91,-18.105 -7.14,-36.881 -8.81,-55.189 -0.86,-9.521 9.25,-11.629 16.41,-13.014 14.45,-3.186 31.23,-5.827 45.95,-8.487 z"
         id="path50"
         style="opacity:1" />
      <path
         fill="#7892c0"
         d="m 1327.81,560.34875 c 5.29,-0.922 16.5,-2.149 18.58,5.164 5.15,18.138 7.11,37.779 10.55,56.292 3.61,19.419 -4.25,20.979 -21.67,23.217 -15.39,1.978 -31.01,6.144 -46.47,7.79 -11.66,1.232 -11.87,-6.517 -14.54,-15.773 -2.91,-18.105 -7.14,-36.881 -8.81,-55.189 -0.86,-9.521 9.25,-11.629 16.41,-13.014 -0.89,1.715 -3.21,5.664 -2.89,7.374 2.33,12.489 5.35,48.848 13.26,57.211 8.65,3.098 47.01,-5.635 56.54,-8.55 -0.52,-10.446 -5.96,-53.171 -12.06,-62.865 -1.28,-2.035 -6.25,-1.685 -8.9,-1.657 z"
         id="path51" />
      <path
         fill="#86abc5"
         d="m 1308.85,658.98775 c 3.78,0.774 6.84,1.461 9.09,4.936 4.18,6.479 14.34,64.176 12.63,70.085 -0.95,3.27 -3.33,5.348 -6.31,6.738 -6.79,3.161 -63.54,13.328 -69.15,11.455 -3.02,-1.006 -4.56,-4.022 -5.73,-6.805 -3.62,-8.658 -13.43,-60.88 -11.08,-68.516 1.05,-3.437 5.12,-5.254 8.22,-6.278 1.39,-0.46 2.81,-0.748 4.24,-1.053 18.27,-3.816 39.68,-7.655 58.09,-10.562 z"
         id="path52"
         style="fill:#8da7ce;fill-opacity:1" />
      <path
         fill="#8da7ce"
         d="m 1308.85,658.98775 c 3.78,0.774 6.84,1.461 9.09,4.936 4.18,6.479 14.34,64.176 12.63,70.085 -0.95,3.27 -3.33,5.348 -6.31,6.738 -6.79,3.161 -63.54,13.328 -69.15,11.455 -3.02,-1.006 -4.56,-4.022 -5.73,-6.805 -3.62,-8.658 -13.43,-60.88 -11.08,-68.516 1.05,-3.437 5.12,-5.254 8.22,-6.278 1.39,-0.46 2.81,-0.748 4.24,-1.053 0.02,11.32 7.58,52.054 12.54,62.401 3,6.256 48.61,-4.193 55.37,-9.499 3.07,-7.998 -4.19,-56.887 -9.82,-63.464 z"
         id="path53"
         style="opacity:1" />
      <path
         fill="#8da7ce"
         d="m 1246.32,859.10075 c 3.61,-0.2 3.74,-0.44 7.1,1.13 7.5,8.32 14.86,60.25 14.18,72.31 -0.13,2.35 -0.03,4.25 -1.93,5.81 -5.19,4.26 -64.15,14.86 -71.67,13.59 -2.67,-0.45 -4.03,-0.96 -5.46,-3.37 -5.14,-8.65 -14.78,-61.81 -12.15,-70.72 0.89,-3.03 3.43,-5.65 6.2,-7.06 2.99,-1.53 6.76,-2.19 10.06,-2.76 16.07,-1.5 35.42,-7.6 53.67,-8.93 z"
         id="path54"
         style="opacity:1" />
      <path
         fill="#7892c0"
         d="m 1246.32,859.10075 c 3.61,-0.2 3.74,-0.44 7.1,1.13 7.5,8.32 14.86,60.25 14.18,72.31 -0.13,2.35 -0.03,4.25 -1.93,5.81 -5.19,4.26 -64.15,14.86 -71.67,13.59 -2.67,-0.45 -4.03,-0.96 -5.46,-3.37 -5.14,-8.65 -14.78,-61.81 -12.15,-70.72 0.89,-3.03 3.43,-5.65 6.2,-7.06 2.99,-1.53 6.76,-2.19 10.06,-2.76 -0.54,0.76 -3.19,4.39 -3.15,5.56 0.54,17.34 3.8,41.52 10.62,57.27 3.27,7.57 50.14,-3.4 56.44,-7.53 4.13,-7.76 -1.77,-26.02 -3.46,-34.77 -1.16,-5.98 -2.59,-26.61 -6.78,-29.46 z"
         id="path55" />
      <path
         fill="#86abc5"
         d="m 1149.83,593.87975 c 15.71,-2.014 16.12,17.628 18.26,29.567 2.2,12.278 8.58,37.643 4.47,48.604 -9.32,7.354 -56.86,13.128 -70.67,14.779 -9.8,0.531 -12.21,-21.252 -13.33,-28.023 -2.52,-15.207 -6.33,-30.46 -6.55,-45.785 -0.1,-6.956 9.73,-8.583 14.67,-9.46 17.61,-3.8 35.33,-7.029 53.15,-9.682 z"
         id="path56"
         style="fill:#8da7ce;fill-opacity:1" />
      <path
         fill="#8da7ce"
         d="m 1149.83,593.87975 c 15.71,-2.014 16.12,17.628 18.26,29.567 2.2,12.278 8.58,37.643 4.47,48.604 -9.32,7.354 -56.86,13.128 -70.67,14.779 -9.8,0.531 -12.21,-21.252 -13.33,-28.023 -2.52,-15.207 -6.33,-30.46 -6.55,-45.785 -0.1,-6.956 9.73,-8.583 14.67,-9.46 -3.56,8.766 5.47,57.572 11.69,64.452 5.99,2.166 54.59,-5.936 55.15,-11.438 1.78,-17.53 -5.21,-42.864 -9.65,-60.334 -0.48,-1.903 -2.21,-1.776 -4.04,-2.362 z"
         id="path57"
         style="opacity:1" />
      <path
         fill="#8da7ce"
         d="m 1217.67,675.53675 c 4.32,1.665 6.97,3.171 8.97,7.512 3.78,8.239 13.91,61.863 11.21,69.01 -0.96,2.533 -1.93,3.93 -4.42,5.169 -7.82,3.885 -65.15,13.615 -71.55,11.346 -3.03,-1.077 -4.29,-5.083 -5.2,-7.89 -2.91,-9.004 -13.45,-59.53 -10.37,-66.155 1.87,-4.031 5.43,-6.302 9.57,-7.564 1.2,-0.357 2.42,-0.677 3.65,-0.959 19.34,-3.188 38.72,-7.233 58.14,-10.469 z"
         id="path58"
         style="opacity:1" />
      <path
         fill="#7892c0"
         d="m 1217.67,675.53675 c 4.32,1.665 6.97,3.171 8.97,7.512 3.78,8.239 13.91,61.863 11.21,69.01 -0.96,2.533 -1.93,3.93 -4.42,5.169 -7.82,3.885 -65.15,13.615 -71.55,11.346 -3.03,-1.077 -4.29,-5.083 -5.2,-7.89 -2.91,-9.004 -13.45,-59.53 -10.37,-66.155 1.87,-4.031 5.43,-6.302 9.57,-7.564 1.2,-0.357 2.42,-0.677 3.65,-0.959 -0.69,7.412 6.44,60.917 11.99,63.696 7.44,3.732 49.57,-2.888 56.54,-10.058 2.42,-10.799 -7.04,-51.882 -10.39,-64.107 z"
         id="path59" />
      <path
         fill="#b0d3e0"
         d="m 1399.74,642.09075 c 3.13,0.307 8.68,1.11 9.91,3.923 5.28,12.012 13.02,62.512 11.53,73.132 -4.65,9.068 -47.21,12.534 -57.76,15.25 -22.76,5.861 -25.15,-5.443 -25.99,-24.432 -0.81,-18.02 -20,-52.759 6.08,-57.528 17.88,-2.593 37.86,-7.32 56.23,-10.345 z"
         id="path60" />
      <path
         fill="#86abc5"
         d="m 1399.74,642.09075 c 3.13,0.307 8.68,1.11 9.91,3.923 5.28,12.012 13.02,62.512 11.53,73.132 -4.65,9.068 -47.21,12.534 -57.76,15.25 -22.76,5.861 -25.15,-5.443 -25.99,-24.432 -0.81,-18.02 -20,-52.759 6.08,-57.528 -1.49,8.076 6.78,59.711 12.72,64.015 9.56,1.971 45.82,-4.42 54.04,-9.751 4.6,-8.48 -5.27,-47.727 -6.92,-58.939 -0.18,-1.234 -2.66,-4.506 -3.61,-5.67 z"
         id="path61"
         style="fill:#8da7ce;fill-opacity:1" />
      <path
         fill="#8da7ce"
         d="m 1245.71,575.64775 c 3.09,0.864 6.14,1.627 7.51,4.923 3.6,8.63 18.34,73.564 8.4,76.344 -13,3.632 -59.39,14.097 -72,12.001 -7.8,-5.41 -17.8,-63.639 -14.68,-75.693 1.2,-4.615 11.1,-6.601 15.55,-7.392 15.88,-3.753 38.93,-7.553 55.22,-10.183 z"
         id="path62"
         style="opacity:1" />
      <path
         fill="#7892c0"
         d="m 1245.71,575.64775 c 3.09,0.864 6.14,1.627 7.51,4.923 3.6,8.63 18.34,73.564 8.4,76.344 -13,3.632 -59.39,14.097 -72,12.001 -7.8,-5.41 -17.8,-63.639 -14.68,-75.693 1.2,-4.615 11.1,-6.601 15.55,-7.392 -1.25,2.943 -2.41,6.477 -3.5,9.537 2.79,12.365 5.6,45.407 12.93,55.585 2.37,3.296 54.16,-6.159 54.93,-10.827 2.98,-18.008 -6.3,-45.166 -9.01,-63.526 z"
         id="path63" />
      <path
         fill="#8da7ce"
         d="m 1280.2,852.30075 c 11.32,-2.68 47.99,-9.8 59,-9.8 2.14,0.45 8.03,1.06 8.54,3.59 2.07,10.27 18.89,74.57 6.2,77.6 -12.68,3.04 -59.11,14.16 -71.46,10.39 -7.83,-8.96 -13.56,-58.82 -15.17,-72.93 -0.57,-5.04 9.05,-7.88 12.89,-8.85 z"
         id="path64"
         style="opacity:1" />
      <path
         fill="#7892c0"
         d="m 1339.2,842.50075 c 2.14,0.45 8.03,1.06 8.54,3.59 2.07,10.27 18.89,74.57 6.2,77.6 -12.68,3.04 -59.11,14.16 -71.46,10.39 -7.83,-8.96 -13.56,-58.82 -15.17,-72.93 -0.57,-5.04 9.05,-7.88 12.89,-8.85 15.05,64.84 -10.08,75.41 70.35,56.14 -0.91,-16.04 -6.91,-50.44 -11.35,-65.94 z"
         id="path65" />
      <path
         fill="#b0d3e0"
         d="m 1538.96,711.00175 c 4.6,-0.392 9.67,-1.07 13.31,2.526 5.95,5.873 14.37,61.58 13.07,71.252 -0.31,2.335 -0.8,4.1 -2.74,5.551 -4.55,3.402 -65.58,14.496 -71.59,12.817 -3.13,-0.875 -4.18,-2.293 -5.6,-5.111 -4.28,-8.452 -13.26,-60.021 -11.21,-68.949 0.7,-3.056 3.57,-6.12 6.42,-7.235 2.16,-0.842 4.45,-1.315 6.75,-1.507 16.47,-2.305 34.63,-6.544 51.59,-9.344 z"
         id="path66" />
      <path
         fill="#86abc5"
         d="m 1538.96,711.00175 c 4.6,-0.392 9.67,-1.07 13.31,2.526 5.95,5.873 14.37,61.58 13.07,71.252 -0.31,2.335 -0.8,4.1 -2.74,5.551 -4.55,3.402 -65.58,14.496 -71.59,12.817 -3.13,-0.875 -4.18,-2.293 -5.6,-5.111 -4.28,-8.452 -13.26,-60.021 -11.21,-68.949 0.7,-3.056 3.57,-6.12 6.42,-7.235 2.16,-0.842 4.45,-1.315 6.75,-1.507 -2,10.636 5.93,54.001 12.11,63.529 1.9,2.937 52.53,-3.907 56.39,-10.609 1.12,-9.512 -2.6,-30.897 -5.19,-40.763 -2.59,-9.868 -0.8,-19.301 -11.72,-21.501 z"
         id="path67"
         style="fill:#8da7ce;fill-opacity:1" />
      <path
         fill="#b0d3e0"
         d="m 1123.46,692.97875 c 4.02,-0.018 6.92,-0.04 9.92,3.112 5.39,5.66 13.95,60.995 12.75,70.095 -0.36,2.72 -0.89,5.391 -3.26,7.049 -5.11,3.587 -64.03,14.243 -70.94,12.52 -1.27,-0.316 -2.37,-0.888 -3.53,-1.477 -7.44,-14.514 -8.84,-40.521 -12.33,-57.064 -1.87,-8.898 -2.93,-24.297 9.87,-24.642 z"
         id="path68" />
      <path
         fill="#86abc5"
         d="m 1123.46,692.97875 c 4.02,-0.018 6.92,-0.04 9.92,3.112 5.39,5.66 13.95,60.995 12.75,70.095 -0.36,2.72 -0.89,5.391 -3.26,7.049 -5.11,3.587 -64.03,14.243 -70.94,12.52 -1.27,-0.316 -2.37,-0.888 -3.53,-1.477 -7.44,-14.514 -8.84,-40.521 -12.33,-57.064 -1.87,-8.898 -2.93,-24.297 9.87,-24.642 0,8.524 8.32,59.951 14.78,64.628 8.18,1.768 56.21,-4.302 56.01,-13.26 -0.28,-13.069 -5.89,-51.02 -13.27,-60.961 z"
         id="path69"
         style="fill:#8da7ce;fill-opacity:1" />
      <path
         fill="#b0d3e0"
         d="m 1150.94,875.82075 c 4.23,-0.34 8.19,0.16 11.56,3 5.47,4.61 12.71,54.06 13.11,64.06 0.15,3.76 0.53,8.14 -1.5,11.46 -7.87,5.55 -69.17,17.78 -76.25,11.51 -5.7,-10.73 -7.96,-32.83 -10.32,-45.41 -2.45,-13.05 -9.58,-32.91 9.34,-34.75 16.85,-2.48 37.02,-6.75 54.06,-9.87 z"
         id="path70" />
      <path
         fill="#86abc5"
         d="m 1150.94,875.82075 c 4.23,-0.34 8.19,0.16 11.56,3 5.47,4.61 12.71,54.06 13.11,64.06 0.15,3.76 0.53,8.14 -1.5,11.46 -7.87,5.55 -69.17,17.78 -76.25,11.51 -5.7,-10.73 -7.96,-32.83 -10.32,-45.41 -2.45,-13.05 -9.58,-32.91 9.34,-34.75 0.3,8.73 6.43,56.92 11.5,62.26 8.75,3.76 52.48,-1.87 56.92,-9.65 1.82,-10.68 -4.9,-46.2 -8.69,-58.13 -0.96,-3.04 -3.29,-3.6 -5.67,-4.35 z"
         id="path71"
         style="fill:#8da7ce;fill-opacity:1" />
      <path
         fill="#3a526e"
         d="m 1552.97,703.56375 c 3.78,-0.218 6.76,-0.841 10.1,0.719 -0.01,3.135 -0.5,2.54 -3.42,5.612 -3.8,-0.578 -7.68,-0.616 -8.98,-4.511 z"
         id="path72" />
      <path
         fill="#274262"
         d="m 333.245,439.75475 c 7.954,-0.411 36.478,5.506 46.296,7.154 54.51,9.149 109.041,18.932 163.499,28.421 l 305.33,53.13 92.663,16.151 c 15.549,2.701 31.332,5.347 46.836,8.283 4.864,0.922 6.638,2.645 9.06,6.678 1.419,28.984 -17.23,88.814 -19.578,120.224 -2.311,30.915 -33.742,14.424 -52.032,13.787 -3.557,-0.124 -1.815,3.42 -2.407,5.704 -2.351,17.427 -5.688,62.897 -15.375,76 4.879,1.253 10.464,2.233 14.957,4.514 4.159,2.112 6.362,4.993 7.571,9.47 3.595,13.318 -7.223,70.02 -13.902,82.15 11.002,2.31 39.64,5.76 42.904,14.4 5.984,15.85 -6.672,67.33 -9.305,82.88 -7.725,46.60005 -15.718,93.14005 -23.979,139.65005 -3.131,19.95 -2.231,27.59 -25.168,23.71 l -410.629,-73.44 -176.398,-31.07 c -22.611,-4.06 -45.39,-7.14 -67.89,-11.68 -21.431,-4.33 -35.183,-22.65005 -31.93,-44.45005 4.315,-28.91 9.675,-57.54 14.631,-86.33 l 30.298,-174.482 29.251,-166.249 c 4.452,-25.02 8.365,-50.129 13.08,-75.097 3.352,-17.748 15.165,-26.357 32.217,-29.508 z"
         id="path73" />
      <path
         fill="#4b6f9c"
         d="m 308.732,476.55175 c 4.343,-20.094 12.816,-31.201 35.049,-27.408 25.931,4.423 51.782,9.365 77.719,13.795 l 215.767,37.578 225.553,39.045 85.439,15.122 c 10.973,1.968 28.712,4.426 38.821,6.913 l 1.846,0.465 -1.831,11.72 c -1.485,4.883 -3.731,22.756 -4.644,28.868 -13.013,-5.785 -57.933,-13.501 -73.13,-14.42 -4.665,-0.282 -11.905,3.485 -15.755,2.604 -3.846,-0.881 -8.647,-6.949 -13.232,-8.35 -6.351,-1.941 -13.748,-2.632 -20.319,-3.877 -11.92,-2.259 -23.81,-4.795 -35.745,-6.951 -7.314,-1.321 -18.396,4.006 -23.094,2.572 -5.448,-1.662 -9.445,-8.453 -18.104,-9.955 -13.614,-2.363 -57,-13.52 -67.469,-9.23 -1.128,0.462 -5.403,2.493 -6.604,2.188 -3.139,-0.797 -7.049,-6.124 -11.181,-7.477 -13.005,-4.261 -46.566,-10.248 -60.578,-11.582 -8.835,-0.841 -13.525,-0.103 -20.398,5.519 -2.93,-4.105 -5.034,-6.541 -8.334,-10.286 -20.714,-4.526 -43.791,-8.465 -64.865,-12.172 -5.816,-1.023 -15.262,3.01 -20.932,2.345 0.002,0 -6.997,-6.208 -7.984,-6.404 -22.149,-4.401 -47.184,-11.598 -69.52,-12.383 -5.192,-0.183 -10.357,2.177 -14.202,3.885 l -0.532,-0.616 -0.901,-1.013 c -1.482,-1.693 -2.934,-3.456 -4.612,-4.964 -6.674,-6.001 -63.098,-14.88 -73.647,-14.207 -5.205,0.333 -10.818,1.1 -14.488,5.126 -7.696,20.894 -11.685,64.524 -16.092,88.27 -21.322,113.479 -41.474,227.175 -60.453,341.069 -1.525,9.53 -3.884,23.31 8.265,27.29 26.575,8.7 56.339,10.94 83.852,16.52 2.97,0.6 9.985,-1.87 13.328,-1.68 3.827,0.92 9.162,6.32 12.899,6.75 30.513,3.51 62.541,17.82 92.929,11.71 0.328,-0.07 6.017,5.35 8.457,5.93 26.383,6.26 53.541,9.82 80.026,15.75005 2.687,1.82 16.867,-4.03 17.949,-2.98 7.464,7.73 17.326,9.94 27.992,10.91 22.534,2.06 56.928,16.53 77.64,6.64 1.932,2.65 4.068,5.12 6.173,7.64 19.13,5.21 40.605,8.3 60.238,11.7 l 70.321,12.65 c 28.438,5.02 75.761,15.56 103.077,17.68 -1.118,9.21 -2.123,18.29 -3.811,27.42 l -409.866,-73.54 -168.727,-29.30005 -59.288,-10.72 c -10.294,-1.9 -20.943,-3.6 -31.065,-5.96 -14.18,-3.31 -25.223,-17.44 -23.302,-32.17 2.542,-19.48 6.135,-38.75 9.617,-58.05 l 13.777,-79.077 35.405,-200.649 c 5.434,-29.66 9.186,-61.527 15.392,-91.331 2.175,-10.44 4.221,-29.542 7.174,-38.922 z"
         id="path74" />
      <path
         fill="#86abc5"
         d="m 308.732,476.55175 c 4.343,-20.094 12.816,-31.201 35.049,-27.408 25.931,4.423 51.782,9.365 77.719,13.795 l 215.767,37.578 225.553,39.045 85.439,15.122 c 10.973,1.968 28.712,4.426 38.821,6.913 l 1.846,0.465 -1.831,11.72 -474.788,-82.865 -118.329,-20.635 c -19.432,-3.406 -43.096,-9.045 -62.563,-9.454 -9.152,-0.192 -16.955,9.414 -22.683,15.724 z"
         id="path75"
         style="fill:#8da7ce;fill-opacity:1" />
      <path
         fill="#fb8c4b"
         d="m 699.323,950.52075 c 2.318,-9.95 3.719,-11.81 14.219,-11.64 65.919,10.51 144.191,23.68 209.248,37.57 11.307,3.05 16.73,4.88 13.539,18.97 -4.326,19.09005 -4.206,46.54005 -13.813,62.92005 -2.462,4.19 -42.041,-4.49 -47.652,-5.46 -32.994,-5.71 -65.94,-11.7 -98.837,-17.94 -14.834,-2.79 -29.69,-5.45 -44.568,-7.98 -9.358,-1.6 -18.732,-2.95 -27.982,-5.16 -13.493,-3.24 -14.852,-9.23 -12.794,-22.05005 2.64,-16.44 5.702,-32.84 8.64,-49.23 z"
         id="path76" />
      <path
         fill="#f6732c"
         d="m 699.323,950.52075 c 2.318,-9.95 3.719,-11.81 14.219,-11.64 l -1.976,9.3 c -1.008,10.6 -9.209,46.88 -6.69,51.96005 3.735,2.74 8.333,4.94 12.899,5.82 58.45,11.3 117.303,20.45 175.736,31.78 6.985,1.35 14.288,2.71 18.565,-3.71 6.648,-9.97 6.779,-50.70005 10.714,-57.58005 11.307,3.05 16.73,4.88 13.539,18.97 -4.326,19.09005 -4.206,46.54005 -13.813,62.92005 -2.462,4.19 -42.041,-4.49 -47.652,-5.46 -32.994,-5.71 -65.94,-11.7 -98.837,-17.94 -14.834,-2.79 -29.69,-5.45 -44.568,-7.98 -9.358,-1.6 -18.732,-2.95 -27.982,-5.16 -13.493,-3.24 -14.852,-9.23 -12.794,-22.05005 2.64,-16.44 5.702,-32.84 8.64,-49.23 z"
         id="path77" />
      <path
         fill="#dd683c"
         d="m 699.323,950.52075 c 2.318,-9.95 3.719,-11.81 14.219,-11.64 l -1.976,9.3 -1.248,-2.41 c -3.491,-0.08 -7.021,2.78 -10.995,4.75 z"
         id="path78" />
      <path
         fill="#86abc5"
         d="m 302.247,770.97475 c 12.593,-0.166 28.889,3.682 41.452,6.066 43.932,8.335 88.466,15.159 132.323,23.745 1.246,-0.039 2.378,0.055 3.618,0.215 3.626,0.469 6.88,1.631 9.103,4.741 6.879,9.629 -3.232,55.889 -6.238,68.879 -0.875,3.77 -2.835,7.16 -6.419,8.97 -3.449,1.73 -7.003,1.01 -10.691,0.57 -24.348,-2.92 -48.905,-8.56 -73.148,-12.68 -30.785,-5.23 -65.289,-9.57 -95.298,-17.37 -3.824,-1 -11.501,-2.81 -13.185,-6.57 -2.316,-5.17 8.169,-64.864 11.455,-71.093 1.728,-3.277 3.616,-4.324 7.028,-5.473 z"
         id="path79"
         style="fill:#8da7ce;fill-opacity:1" />
      <path
         fill="#5a849f"
         d="m 476.022,800.78575 c 1.246,-0.039 2.378,0.055 3.618,0.215 3.626,0.469 6.88,1.631 9.103,4.741 6.879,9.629 -3.232,55.889 -6.238,68.879 -0.875,3.77 -2.835,7.16 -6.419,8.97 -3.449,1.73 -7.003,1.01 -10.691,0.57 -24.348,-2.92 -48.905,-8.56 -73.148,-12.68 -30.785,-5.23 -65.289,-9.57 -95.298,-17.37 -3.824,-1 -11.501,-2.81 -13.185,-6.57 -2.316,-5.17 8.169,-64.864 11.455,-71.093 1.728,-3.277 3.616,-4.324 7.028,-5.473 -3.226,11.418 -10.933,52.386 -8.423,62.956 5.979,5.17 43.817,10.53 54.327,12.43 26.671,5.08 53.42,9.74 80.237,13.99 7.712,1.26 34.848,7.81 37.827,3.64 5.403,-7.55 13.05,-55.05 9.807,-63.205 z"
         id="path80"
         style="fill:#7892c0;fill-opacity:1" />
      <path
         fill="#4b6f9c"
         d="m 223.331,966.09075 c 6.257,3.99 11.347,14.95 20.767,17.38 22.284,5.75 45.284,9.25 67.964,13.26 l 142.424,24.67005 284.982,50.35 95.972,17.21 c 26.11,4.88 55.208,10.85 81.361,14.45 -1.089,6.3 -2.257,12.59 -3.502,18.86 -0.119,0.37 -1.029,1.64 -1.287,2.02 -15.818,1.12 -42.673,-8.79 -58.93,-10.51 -32.066,-3.39 -63.022,-11.91 -94.414,-17.03 -121.115,-19.57 -241.947,-40.85 -362.462,-63.82 -17.399,-3.18 -36.923,-4.1 -54.119,-8.43 -27.597,-6.96 -55.142,-9.19 -82.815,-14.48 -30.796,-5.88 -37.896,-12.70005 -35.941,-43.93005 z"
         id="path81" />
      <path
         fill="#86abc5"
         d="m 445.511,701.48075 c 1.483,0.047 2.824,0.149 4.288,0.375 3.951,0.608 6.714,1.738 9.013,5.274 1.943,2.988 2.34,7.675 2.217,11.128 -0.264,7.474 -7.819,52.972 -10.042,59.629 -1.068,3.196 -3.328,5.677 -6.441,6.962 -4.487,1.854 -111.472,-17.632 -125.831,-20.876 -5.972,-1.349 -11.68,-3.085 -17.361,-5.365 -1.239,-1.534 -1.412,-1.465 -1.751,-3.618 -1.266,-8.027 8.586,-66.917 12.491,-71.899 2.424,-3.092 5.016,-3.631 8.764,-4.063 l 80.556,14.303 c 12.923,2.261 31.853,4.889 44.097,8.15 z"
         id="path82"
         style="fill:#8da7ce;fill-opacity:1" />
      <path
         fill="#5a849f"
         d="m 445.511,701.48075 c 1.483,0.047 2.824,0.149 4.288,0.375 3.951,0.608 6.714,1.738 9.013,5.274 1.943,2.988 2.34,7.675 2.217,11.128 -0.264,7.474 -7.819,52.972 -10.042,59.629 -1.068,3.196 -3.328,5.677 -6.441,6.962 -4.487,1.854 -111.472,-17.632 -125.831,-20.876 -5.972,-1.349 -11.68,-3.085 -17.361,-5.365 -1.239,-1.534 -1.412,-1.465 -1.751,-3.618 -1.266,-8.027 8.586,-66.917 12.491,-71.899 2.424,-3.092 5.016,-3.631 8.764,-4.063 -5.176,10.645 -14.079,53.011 -11.042,62.475 11.618,10.017 101.047,20.421 121.003,24.097 10.147,1.87 16.969,-55.67 15.166,-62.314 z"
         id="path83"
         style="fill:#7892c0;fill-opacity:1" />
      <path
         fill="#86abc5"
         d="m 331.708,588.64475 c 11.936,-1.111 91.708,13.281 106.543,17.095 l 10.42,1.474 c 4.353,5.93 5.962,7.249 4.851,14.297 -0.18,1.212 -0.419,2.414 -0.717,3.602 -0.794,8.815 -7.859,64.662 -16.825,63.337 -19.46,-2.877 -105.245,-12.691 -118.485,-21.515 -2.68,-5.426 -2.161,-13.201 -0.86,-19.608 3.561,-17.536 5.3,-37.985 10.951,-54.837 0.629,-1.875 2.325,-2.561 4.122,-3.845 z"
         id="path84"
         style="fill:#8da7ce;fill-opacity:1" />
      <path
         fill="#5a849f"
         d="m 452.805,625.11275 c -0.794,8.815 -7.859,64.662 -16.825,63.337 -19.46,-2.877 -105.245,-12.691 -118.485,-21.515 -2.68,-5.426 -2.161,-13.201 -0.86,-19.608 3.561,-17.536 5.3,-37.985 10.951,-54.837 0.629,-1.875 2.325,-2.561 4.122,-3.845 3.862,13.542 -12.099,49.107 -5.172,63.093 9.714,4.916 88.166,18.749 99.004,17.35 7.558,-6.239 11.959,-45.856 13.865,-57.85 l -1.154,-5.498 10.42,1.474 c 4.353,5.93 5.962,7.249 4.851,14.297 -0.18,1.212 -0.419,2.414 -0.717,3.602 z"
         id="path85"
         style="fill:#7892c0;fill-opacity:1" />
      <path
         fill="#7892c0"
         d="m 438.251,605.73975 10.42,1.474 c 4.353,5.93 5.962,7.249 4.851,14.297 -0.18,1.212 -0.419,2.414 -0.717,3.602 -0.645,-0.3 -1.29,-0.6 -1.935,-0.9 -1.193,-8.185 -2.069,-12.709 -11.465,-12.975 z"
         id="path86" />
      <path
         fill="#86abc5"
         d="m 568.852,912.01075 c 3.82,0.68 7.964,1.14 11.299,3.25 2.567,1.62 3.931,4.71 4.6,7.56 1.564,6.65 -8.576,64.25 -12.51,69.47 -1.668,2.21 -3.299,3.27 -6.077,3.45 -10.948,0.68 -64.926,-9.5 -76.503,-13.1 -3.867,-1.21 -6.919,-2.57 -10.047,-5.13 -1.262,-3.61 -1.652,-6.7 -1.278,-10.56 1.685,-17.39 6.697,-34.31 8.08,-51.79 0.39,-4.93 2.251,-10.32 6.056,-13.62 3.699,-3.2 9.344,-1.97 13.917,-1.57 20.416,5.03 41.999,7.57 62.463,12.04 z"
         id="path87"
         style="fill:#8da7ce;fill-opacity:1" />
      <path
         fill="#5a849f"
         d="m 568.852,912.01075 c 3.82,0.68 7.964,1.14 11.299,3.25 2.567,1.62 3.931,4.71 4.6,7.56 1.564,6.65 -8.576,64.25 -12.51,69.47 -1.668,2.21 -3.299,3.27 -6.077,3.45 -10.948,0.68 -64.926,-9.5 -76.503,-13.1 -3.867,-1.21 -6.919,-2.57 -10.047,-5.13 -1.262,-3.61 -1.652,-6.7 -1.278,-10.56 1.685,-17.39 6.697,-34.31 8.08,-51.79 0.39,-4.93 2.251,-10.32 6.056,-13.62 3.699,-3.2 9.344,-1.97 13.917,-1.57 -14.543,2.14 -11.842,14.02 -13.49,25.85 -1.352,10.38 -5.556,23.3 -4.627,33.51 0.752,8.29 23.55,10.84 30.379,11.75 9.872,1.3 30.408,6.23 39.592,4.17 6.718,-6.02 5.977,-18.76 7.705,-27.26 2.352,-11.59 6.825,-24.36 2.904,-35.98 z"
         id="path88"
         style="fill:#7892c0;fill-opacity:1" />
      <path
         fill="#86abc5"
         d="m 602.111,919.44075 c 10.946,-0.46 62.427,8.98 74.048,12.34 0.997,0.09 1.993,0.19 2.986,0.32 7.023,0.93 7.428,2.56 11.921,8.47 -1.579,18.41 -6.987,54.73 -13.199,71.31005 -3.04,8.12 -85.128,-8.43 -93.008,-14.43005 -2.503,-9.23 6.78,-59.16 10.017,-71.09 1.129,-4.16 3.661,-5.2 7.235,-6.92 z"
         id="path89"
         style="fill:#8da7ce;fill-opacity:1" />
      <path
         fill="#5a849f"
         d="m 691.066,940.57075 c -1.579,18.41 -6.987,54.73 -13.199,71.31005 -3.04,8.12 -85.128,-8.43 -93.008,-14.43005 -2.503,-9.23 6.78,-59.16 10.017,-71.09 1.129,-4.16 3.661,-5.2 7.235,-6.92 -1.421,15.14 -8.836,50.14 -6.417,62 9.626,8.18 51.617,11.68 65.649,13.79 9.919,1.5 16.058,-55.5 14.816,-63.45 0.997,0.09 1.993,0.19 2.986,0.32 7.023,0.93 7.428,2.56 11.921,8.47 z"
         id="path90"
         style="fill:#7892c0;fill-opacity:1" />
      <path
         fill="#fb8c4b"
         d="m 392.645,880.59075 c 23.776,3.13 49.361,8.28 73.091,12.58 5.887,1.38 9.067,1.58 12.686,6.21 2.343,7.79 -2.991,30.78 -4.341,39.99 -1.434,9.79 -3.626,31.02 -11.653,36.98 -11.849,1.43 -68.608,-10.16 -83.719,-13.85 -1.442,0.05 -4.82,-4.82 -4.747,-5.93 1.037,-15.55 3.299,-70.62 18.683,-75.98 z"
         id="path91" />
      <path
         fill="#f6732c"
         d="m 465.736,893.17075 c 5.887,1.38 9.067,1.58 12.686,6.21 2.343,7.79 -2.991,30.78 -4.341,39.99 -1.434,9.79 -3.626,31.02 -11.653,36.98 -11.849,1.43 -68.608,-10.16 -83.719,-13.85 -1.442,0.05 -4.82,-4.82 -4.747,-5.93 1.037,-15.55 3.299,-70.62 18.683,-75.98 -1.718,5.86 -9.741,59.39 -8.768,60.59 7.603,9.37 57.46,17.13 69.01,13.56 4.875,-3.76 12.187,-53.11 12.849,-61.57 z"
         id="path92" />
      <path
         fill="#86abc5"
         d="m 287.516,861.67075 c 21.645,2.5 50.535,8.55 72.557,12.51 5.557,1.47 15.481,3.58 14.092,11.14 -2.681,14.58 -7.306,62.99 -15.818,71.69 -14.276,3.14 -65.495,-10.83 -82.602,-13.02 -5.018,-0.64 -8.989,-8.37 -8.242,-13.31 3.146,-20.8 6.329,-42.36 11.598,-62.73 0.959,-3.7 5.273,-5.13 8.415,-6.28 z"
         id="path93"
         style="fill:#8da7ce;fill-opacity:1" />
      <path
         fill="#5a849f"
         d="m 360.073,874.18075 c 5.557,1.47 15.481,3.58 14.092,11.14 -2.681,14.58 -7.306,62.99 -15.818,71.69 -14.276,3.14 -65.495,-10.83 -82.602,-13.02 -5.018,-0.64 -8.989,-8.37 -8.242,-13.31 3.146,-20.8 6.329,-42.36 11.598,-62.73 0.959,-3.7 5.273,-5.13 8.415,-6.28 -2.917,10.68 -10.879,52.16 -9.116,61.87 5.652,6.3 61.551,16.4 69.395,13.13 6.933,-2.89 12.703,-54.24 12.278,-62.49 z"
         id="path94"
         style="fill:#7892c0;fill-opacity:1" />
      <path
         fill="#fb8c4b"
         d="m 351.258,494.55275 60.658,11.174 c 4.185,1.039 12.986,4.212 12.569,9.282 -1.361,16.53 -5.303,59.965 -14.629,72.562 -4.441,2.543 -11.816,1.315 -16.783,0.62 -13.774,-1.928 -44.431,-5.743 -56.287,-10.494 -2.097,-0.84 -3.64,-2.214 -4.849,-4.126 -3.387,-5.358 6.304,-59.062 9.174,-67.622 2.067,-6.164 4.408,-8.487 10.147,-11.396 z"
         id="path95" />
      <path
         fill="#f6732c"
         d="m 411.916,505.72675 c 4.185,1.039 12.986,4.212 12.569,9.282 -1.361,16.53 -5.303,59.965 -14.629,72.562 -4.441,2.543 -11.816,1.315 -16.783,0.62 -13.774,-1.928 -44.431,-5.743 -56.287,-10.494 -2.097,-0.84 -3.64,-2.214 -4.849,-4.126 -3.387,-5.358 6.304,-59.062 9.174,-67.622 2.067,-6.164 4.408,-8.487 10.147,-11.396 -3.375,18.48 -12.214,48.273 -8.732,65.624 0.521,2.594 49.383,11.623 54.012,10.368 8.594,-7.713 13.361,-51.647 15.378,-64.818 z"
         id="path96" />
      <path
         fill="#f6732c"
         d="m 386.896,535.32175 c 5.14,-1.327 8.505,-2.098 11.486,3.298 1.014,1.423 1.325,3.231 0.843,4.911 -0.481,1.68 -1.701,3.049 -3.315,3.719 -1.222,1.698 -0.922,1.135 -3.114,2.187 -3.505,-0.067 -5.188,-1.887 -8.091,-4.017 0.008,-4.985 0.053,-5.614 2.191,-10.098 z"
         id="path97" />
      <path
         fill="#0d0403"
         d="m 386.896,535.32175 c 5.14,-1.327 8.505,-2.098 11.486,3.298 -1.742,-2.446 -5.075,-3.135 -7.644,-1.581 -2.57,1.554 -3.507,4.826 -2.15,7.504 1.356,2.679 4.549,3.859 7.322,2.707 -1.222,1.698 -0.922,1.135 -3.114,2.187 -3.505,-0.067 -5.188,-1.887 -8.091,-4.017 0.008,-4.985 0.053,-5.614 2.191,-10.098 z"
         id="path98" />
      <path
         fill="#0d0403"
         d="m 381.493,545.40575 c -2.287,1.104 -2.481,1.05 -5.012,1.53 -3.126,-0.908 -3.758,-0.785 -6.067,-3.084 l 1.192,-1.013 4.849,1.669 1.886,-1.03 c -1.845,-3.722 -3.661,-2.336 -6.871,-6.766 1.999,-4.34 0.506,-2.85 4.072,-5.128 3.855,-0.099 4.283,0.496 7.445,2.621 l 3.909,1.117 c -2.138,4.484 -2.183,5.113 -2.191,10.098 l -1.995,1.494 z"
         id="path99" />
      <path
         fill="#f6732c"
         d="m 381.493,545.40575 c 0.088,-1.54 -0.002,-2.601 -0.073,-4.139 -2.639,-2.537 -3.536,-3.715 -5.777,-6.653 5.996,-1.99 0.117,2.328 7.344,-0.409 l 3.909,1.117 c -2.138,4.484 -2.183,5.113 -2.191,10.098 l -1.995,1.494 z"
         id="path100" />
      <path
         fill="#0d0403"
         d="m 355.242,521.20875 c 5.389,0.038 8.342,0.978 13.537,2.207 -1.962,1.274 -6.841,-0.61 -11.377,1.393 l -0.598,2.877 c 3.313,3.82 6.681,3.227 10.124,6.602 l -11.5,-1.139 c -0.342,2.878 -0.382,2.832 0.087,5.674 2.85,2.345 6.474,3.957 9.806,5.644 -5.849,-0.188 -8.296,-1.18 -13.85,-2.806 1.16,-6.835 2.417,-13.653 3.771,-20.452 z"
         id="path101" />
      <path
         fill="#b0d3e0"
         d="m 849.278,775.07675 c 13.605,0.529 45.752,7.207 60.891,9.964 4.678,1.213 13.126,4.416 12.534,10.256 -1.536,15.157 -6.586,60.494 -14.052,71.594 -9.29,4.35 -59.875,-5.46 -71.208,-9.24 -3.258,-1.08 -5.284,-2.97 -6.703,-6.1 -3.179,-7.01 6.786,-61.804 10.714,-70.38 1.72,-3.755 4.145,-4.845 7.824,-6.094 z"
         id="path102" />
      <path
         fill="#86abc5"
         d="m 910.169,785.04075 c 4.678,1.213 13.126,4.416 12.534,10.256 -1.536,15.157 -6.586,60.494 -14.052,71.594 -9.29,4.35 -59.875,-5.46 -71.208,-9.24 -3.258,-1.08 -5.284,-2.97 -6.703,-6.1 -3.179,-7.01 6.786,-61.804 10.714,-70.38 1.72,-3.755 4.145,-4.845 7.824,-6.094 l -0.139,1.182 c -1.554,12.513 -12.353,56.092 -7.681,63.802 7.246,5.15 54.905,15.05 58.067,5.89 4.921,-14.27 10.415,-46.021 10.644,-60.91 z"
         id="path103"
         style="fill:#8da7ce;fill-opacity:1" />
      <path
         fill="#b0d3e0"
         d="m 841.712,867.14075 c 5.32,0.44 11.005,1.05 14.804,5.04 8.913,9.33 -0.94,35.91 -1.542,45.82 -0.448,7.37 -4.162,31.27 -9.123,32.75 -8.029,2.4 -77.21,-8.76 -77.417,-15.94 -0.69,-23.96 5.486,-49.51 10.661,-72.75 0.727,-3.13 7.604,-3.53 10.128,-3.74 14.805,1.22 37.786,5.69 52.489,8.82 z"
         id="path104" />
      <path
         fill="#86abc5"
         d="m 841.712,867.14075 c 5.32,0.44 11.005,1.05 14.804,5.04 8.913,9.33 -0.94,35.91 -1.542,45.82 -0.448,7.37 -4.162,31.27 -9.123,32.75 -8.029,2.4 -77.21,-8.76 -77.417,-15.94 -0.69,-23.96 5.486,-49.51 10.661,-72.75 0.727,-3.13 7.604,-3.53 10.128,-3.74 -4.513,6.19 -15.581,61.91 -8.941,64.77 10.221,4.4 44.219,11.17 55.036,9.1 6.319,-4.04 8.369,-40.13 11.797,-48.56 2.173,-5.35 -0.28,-12.4 -5.403,-16.49 z"
         id="path105"
         style="fill:#8da7ce;fill-opacity:1" />
      <path
         fill="#8da7ce"
         d="m 842.051,678.91175 c 18.648,2.166 39.813,6.818 58.71,10.1 3.81,0.751 11.46,2.988 12.725,8.002 2.246,8.904 -7.564,72.521 -14.471,74.784 -6.51,2.134 -77.717,-6.41 -77.034,-17.681 1.182,-19.492 5.078,-53.218 12.878,-72.158 0.921,-2.241 4.98,-2.752 7.192,-3.047 z"
         id="path106"
         style="opacity:1" />
      <path
         fill="#7892c0"
         d="m 900.761,689.01175 c 3.81,0.751 11.46,2.988 12.725,8.002 2.246,8.904 -7.564,72.521 -14.471,74.784 -6.51,2.134 -77.717,-6.41 -77.034,-17.681 1.182,-19.492 5.078,-53.218 12.878,-72.158 0.921,-2.241 4.98,-2.752 7.192,-3.047 -2.742,9.918 -12.352,54.639 -10.542,63.193 6.039,6.932 22.745,8.344 31.706,9.771 20.703,3.297 28.925,7.482 32.429,-17.256 1.978,-13.966 5.645,-31.293 5.117,-45.608 z"
         id="path107" />
      <path
         fill="#8da7ce"
         d="m 664.18,741.31875 c 11.964,0.738 47.487,7.192 60.015,10.126 4.919,1.105 8.02,1.675 11.847,4.809 1.959,3.17 1.647,6.77 1.489,10.364 -0.478,10.875 -7.341,61.713 -14.676,67.333 -2.929,2.24 -11.958,0.81 -15.599,0.28 -13.471,-1.93 -45.224,-6.32 -56.053,-10.8 -1.916,-0.79 -3.432,-2.12 -4.499,-3.92 -4.406,-7.445 5.562,-59.487 9.034,-69.244 1.713,-4.812 3.81,-6.855 8.442,-8.948 z"
         id="path108"
         style="opacity:1" />
      <path
         fill="#7892c0"
         d="m 724.195,751.44475 c 4.919,1.105 8.02,1.675 11.847,4.809 1.959,3.17 1.647,6.77 1.489,10.364 -0.478,10.875 -7.341,61.713 -14.676,67.333 -2.929,2.24 -11.958,0.81 -15.599,0.28 -13.471,-1.93 -45.224,-6.32 -56.053,-10.8 -1.916,-0.79 -3.432,-2.12 -4.499,-3.92 -4.406,-7.445 5.562,-59.487 9.034,-69.244 1.713,-4.812 3.81,-6.855 8.442,-8.948 -0.924,13.305 -11.466,54.296 -8.262,63.377 6.881,5.611 50.054,14.835 56.718,9.469 5.121,-8.682 11.516,-52.257 11.559,-62.72 z"
         id="path109" />
      <path
         fill="#b0d3e0"
         d="m 749.869,661.61875 c 19.423,2.152 39.62,7.515 58.936,10.401 1.192,0.185 2.347,0.404 3.519,0.696 3.915,0.973 6.882,2.706 8.791,6.39 3.293,6.357 -5.845,54.133 -8.059,62.619 -0.876,3.362 -3.018,11.384 -6.52,12.961 -3.255,1.466 -7.435,1.341 -10.921,1.047 -9.298,-0.784 -50.75,-7.996 -58.218,-10.681 -3.337,-1.2 -6.486,-3.362 -7.721,-6.835 -2.02,-5.68 8.102,-62.647 11.484,-70.065 1.871,-4.102 4.719,-5.18 8.709,-6.533 z"
         id="path110" />
      <path
         fill="#86abc5"
         d="m 808.805,672.01975 c 1.192,0.185 2.347,0.404 3.519,0.696 3.915,0.973 6.882,2.706 8.791,6.39 3.293,6.357 -5.845,54.133 -8.059,62.619 -0.876,3.362 -3.018,11.384 -6.52,12.961 -3.255,1.466 -7.435,1.341 -10.921,1.047 -9.298,-0.784 -50.75,-7.996 -58.218,-10.681 -3.337,-1.2 -6.486,-3.362 -7.721,-6.835 -2.02,-5.68 8.102,-62.647 11.484,-70.065 1.871,-4.102 4.719,-5.18 8.709,-6.533 -2.81,8.28 -11.36,56.231 -9.22,63.287 1.934,6.377 47.089,13.767 55.093,11.848 7.446,-7.226 14.692,-54.129 13.063,-64.734 z"
         id="path111"
         style="fill:#8da7ce;fill-opacity:1" />
      <path
         fill="#b0d3e0"
         d="m 756.862,758.17075 c 15.707,0.741 42.971,7.452 59.152,10.041 5.581,1.155 14.049,2.945 13.601,10.091 -0.935,14.916 -6.2,61.728 -14.143,71.688 -8.61,3.67 -73.242,-6.78 -77.389,-14.37 -3.11,-5.7 7.466,-64.924 10.217,-72.55 2.831,-3.282 4.286,-3.375 8.562,-4.9 z"
         id="path112" />
      <path
         fill="#86abc5"
         d="m 816.014,768.21175 c 5.581,1.155 14.049,2.945 13.601,10.091 -0.935,14.916 -6.2,61.728 -14.143,71.688 -8.61,3.67 -73.242,-6.78 -77.389,-14.37 -3.11,-5.7 7.466,-64.924 10.217,-72.55 2.831,-3.282 4.286,-3.375 8.562,-4.9 -2.757,10.881 -12.549,54.958 -9.084,63.52 7.072,6.1 54.181,15.71 57.338,8.87 6.44,-13.95 11.488,-46.896 10.898,-62.349 z"
         id="path113"
         style="fill:#8da7ce;fill-opacity:1" />
      <path
         fill="#7892c0"
         d="m 770.314,813.70275 c 4.645,0.657 14.488,0.888 17.759,4.028 0.98,0.94 0.523,2.41 0.489,4.25 -5.184,-0.76 -17.156,-0.84 -19.447,-5.39 z"
         id="path114" />
      <path
         fill="#86abc5"
         d="m 777.641,571.76475 c 3.534,0.419 13.412,2.727 14.384,5.906 3.973,12.996 -5.362,69.588 -13.948,77.811 -3.812,1.341 -7.802,0.994 -11.757,0.572 -13.01,-1.39 -26.032,-5.247 -38.919,-7.653 -5.897,-1.101 -12.224,-1.031 -17.894,-3.093 -3.713,-1.35 -6.554,-3.39 -8.008,-7.205 -2.134,-5.598 8.623,-64.164 12.389,-70.966 1.82,-3.287 4.094,-4.088 7.455,-5.071 17.175,1.762 38.827,6.487 56.298,9.699 z"
         id="path115"
         style="fill:#8da7ce;fill-opacity:1" />
      <path
         fill="#8da7ce"
         d="m 777.641,571.76475 c 3.534,0.419 13.412,2.727 14.384,5.906 3.973,12.996 -5.362,69.588 -13.948,77.811 -3.812,1.341 -7.802,0.994 -11.757,0.572 -13.01,-1.39 -26.032,-5.247 -38.919,-7.653 -5.897,-1.101 -12.224,-1.031 -17.894,-3.093 -3.713,-1.35 -6.554,-3.39 -8.008,-7.205 -2.134,-5.598 8.623,-64.164 12.389,-70.966 1.82,-3.287 4.094,-4.088 7.455,-5.071 -2.411,11.312 -11.146,53.329 -9.313,62.947 6.111,6.89 48.488,15.839 55.717,11.019 6.376,-4.251 11.612,-46.41 12.043,-55.471 0.09,-1.89 -1.496,-6.884 -2.149,-8.796 z"
         id="path116"
         style="opacity:1" />
      <path
         fill="#8da7ce"
         d="m 595.77,539.11575 c 24.319,4.422 9.059,30.499 7.734,47.231 -0.485,6.122 -3.784,36.805 -12.38,36.164 -16.085,-1.201 -59.731,-6.226 -72.464,-14.002 -1.97,-3.148 -1.857,-6.773 -1.757,-10.373 0.273,-9.77 7.294,-61.729 14.587,-67.194 3.634,-2.723 7.716,-2.298 11.983,-1.943 16.612,3.315 36.283,6.374 52.297,10.117 z"
         id="path117"
         style="opacity:1" />
      <path
         fill="#7892c0"
         d="m 595.77,539.11575 c 24.319,4.422 9.059,30.499 7.734,47.231 -0.485,6.122 -3.784,36.805 -12.38,36.164 -16.085,-1.201 -59.731,-6.226 -72.464,-14.002 -1.97,-3.148 -1.857,-6.773 -1.757,-10.373 0.273,-9.77 7.294,-61.729 14.587,-67.194 3.634,-2.723 7.716,-2.298 11.983,-1.943 -2.83,0.578 -5.67,0.565 -6.928,3.873 -6.106,16.052 -10.846,42.009 -9.839,58.714 0.433,7.177 49.303,13.272 56.176,13.401 5.53,-10.208 13.081,-53.597 12.888,-65.871 z"
         id="path118" />
      <path
         fill="#b0d3e0"
         d="m 961.684,605.96275 c 2.927,0.177 6.199,0.425 8.975,1.393 2.962,1.033 5.509,2.964 6.644,5.982 3.297,8.767 -6.413,65.107 -11.567,73.518 -1.223,1.996 -2.454,2.952 -4.843,3.346 -6.696,1.104 -68.64,-9.997 -72.175,-14.173 -1.797,-2.124 -2.23,-6.955 -2.342,-9.596 -0.365,-8.587 7.356,-62.246 12.865,-67.133 3.751,-3.328 8.97,-2.763 13.557,-2.286 16.453,2.46 32.574,5.738 48.886,8.949 z"
         id="path119" />
      <path
         fill="#86abc5"
         d="m 961.684,605.96275 c 2.927,0.177 6.199,0.425 8.975,1.393 2.962,1.033 5.509,2.964 6.644,5.982 3.297,8.767 -6.413,65.107 -11.567,73.518 -1.223,1.996 -2.454,2.952 -4.843,3.346 -6.696,1.104 -68.64,-9.997 -72.175,-14.173 -1.797,-2.124 -2.23,-6.955 -2.342,-9.596 -0.365,-8.587 7.356,-62.246 12.865,-67.133 3.751,-3.328 8.97,-2.763 13.557,-2.286 -2.713,0.641 -5.774,0.821 -6.889,3.969 -4.261,12.035 -11.152,47.833 -9.791,58.707 4.331,5.549 53.611,14.085 56.921,9.976 5.319,-6.603 14.699,-54.571 8.645,-63.703 z"
         id="path120"
         style="fill:#8da7ce;fill-opacity:1" />
      <path
         fill="#b0d3e0"
         d="m 600.878,825.10075 c 11.023,-1.15 46.757,6.69 59.719,9.22 l 1.026,0.14 c 4.812,0.72 9.987,1.7 12.862,6.06 4.536,6.88 -5.391,50.72 -7.344,60.77 -0.695,3.58 -2.307,12.85 -5.504,14.58 -9.677,5.23 -54.799,-4.75 -67.36,-7.93 -3.393,-0.85 -7.701,-1.63 -9.493,-4.97 -4.005,-7.47 5.476,-60.76 8.869,-70.51 1.421,-4.08 3.517,-5.56 7.225,-7.36 z"
         id="path121" />
      <path
         fill="#86abc5"
         d="m 660.597,834.32075 1.026,0.14 c 4.812,0.72 9.987,1.7 12.862,6.06 4.536,6.88 -5.391,50.72 -7.344,60.77 -0.695,3.58 -2.307,12.85 -5.504,14.58 -9.677,5.23 -54.799,-4.75 -67.36,-7.93 -3.393,-0.85 -7.701,-1.63 -9.493,-4.97 -4.005,-7.47 5.476,-60.76 8.869,-70.51 1.421,-4.08 3.517,-5.56 7.225,-7.36 -1.583,11.51 -8.706,52.38 -6.893,61 6.699,8.23 51.836,15.69 55.128,12.35 7.633,-7.74 14.558,-54.29 11.484,-64.13 z"
         id="path122"
         style="fill:#8da7ce;fill-opacity:1" />
      <path
         fill="#86abc5"
         d="m 570.009,725.65475 c 13.127,-1.324 49.141,7.401 64.291,9.581 3.309,0.561 6.125,1.445 8.488,3.915 2.98,3.113 3.293,6.793 3.015,10.911 -0.837,12.378 -7.557,60.443 -15.898,67.059 -5.06,4.01 -55.018,-6.911 -63.73,-8.697 -4.707,-0.965 -10.602,-2.126 -13.08,-6.794 -2.786,-5.247 7.175,-57.843 9.525,-66.499 1.366,-5.033 2.921,-6.8 7.389,-9.476 z"
         id="path123"
         style="fill:#8da7ce;fill-opacity:1" />
      <path
         fill="#8da7ce"
         d="m 634.3,735.23575 c 3.309,0.561 6.125,1.445 8.488,3.915 2.98,3.113 3.293,6.793 3.015,10.911 -0.837,12.378 -7.557,60.443 -15.898,67.059 -5.06,4.01 -55.018,-6.911 -63.73,-8.697 -4.707,-0.965 -10.602,-2.126 -13.08,-6.794 -2.786,-5.247 7.175,-57.843 9.525,-66.499 1.366,-5.033 2.921,-6.8 7.389,-9.476 -1.508,17.671 -8.343,46.679 -5.673,63.084 0.528,3.244 52.197,14.529 55.285,9.369 10.259,-17.142 8.975,-43.129 14.679,-62.872 z"
         id="path124"
         style="opacity:1" />
      <path
         fill="#86abc5"
         d="m 442.292,512.34975 c 10.285,-0.009 51.131,7.778 61.155,10.627 4.566,0.85 12.865,1.648 13.253,7.97 0.928,15.121 -3.306,30.461 -5.798,45.369 -1.341,8.026 -3.345,21.144 -8.122,27.721 -7.911,3.894 -76.508,-6.856 -77.205,-14.553 -1.249,-13.817 4.408,-69.856 16.717,-77.134 z"
         id="path125"
         style="fill:#8da7ce;fill-opacity:1" />
      <path
         fill="#8da7ce"
         d="m 503.447,522.97675 c 4.566,0.85 12.865,1.648 13.253,7.97 0.928,15.121 -3.306,30.461 -5.798,45.369 -1.341,8.026 -3.345,21.144 -8.122,27.721 -7.911,3.894 -76.508,-6.856 -77.205,-14.553 -1.249,-13.817 4.408,-69.856 16.717,-77.134 -1.235,12.234 -8.773,54.71 -7.231,62.561 6.87,8.306 45.722,14.297 55.5,11.242 6.748,-5.671 7.06,-16.613 8.035,-24.975 1.157,-9.931 6.827,-28.886 4.851,-38.201 z"
         id="path126"
         style="opacity:1" />
      <path
         fill="#8da7ce"
         d="m 692.953,841.63075 c 9.033,-0.97 50.35,7.21 61.136,9.85 4.334,1.05 13.546,3.11 13.293,8.47 -0.704,14.89 -5.684,62.34 -13.49,73.01 -8.926,4.55 -76.049,-7.06 -77.222,-13.95 -2.512,-14.76 6.41,-55.49 8.916,-71.65 2.066,-1.98 5,-3.98 7.367,-5.73 z"
         id="path127"
         style="opacity:1" />
      <path
         fill="#7892c0"
         d="m 685.586,847.36075 c 2.066,-1.98 5,-3.98 7.367,-5.73 3.075,18.77 -13.79,51.17 -4.225,66.51 1.368,2.19 47.548,8.9 51.723,8.2 8.436,-1.4 15.179,-57.46 13.638,-64.86 4.334,1.05 13.546,3.11 13.293,8.47 -0.704,14.89 -5.684,62.34 -13.49,73.01 -8.926,4.55 -76.049,-7.06 -77.222,-13.95 -2.512,-14.76 6.41,-55.49 8.916,-71.65 z"
         id="path128" />
      <path
         fill="#8da7ce"
         d="m 568.153,817.43075 c 5.843,1.31 9.946,2.04 14.281,6.15 3.845,8.12 -6.81,69.63 -13.278,75.91 -14.837,4.96 -50.722,-6.2 -67.163,-8.25 -15.095,0.08 -11.449,-21.71 -8.093,-32.08 4.917,-15.19 1.104,-46.432 18.004,-51.403 18.056,2.906 38.523,5.934 56.249,9.673 z"
         id="path129"
         style="opacity:1" />
      <path
         fill="#7892c0"
         d="m 568.153,817.43075 c 5.843,1.31 9.946,2.04 14.281,6.15 3.845,8.12 -6.81,69.63 -13.278,75.91 -14.837,4.96 -50.722,-6.2 -67.163,-8.25 -15.095,0.08 -11.449,-21.71 -8.093,-32.08 4.917,-15.19 1.104,-46.432 18.004,-51.403 -4.04,9.653 -12.747,52.683 -10.39,62.593 1.479,6.22 48.861,13.75 56.397,11.78 7.042,-7.62 11.306,-46.3 12.502,-58.05 0.212,-2.08 -1.238,-4.79 -2.26,-6.65 z"
         id="path130" />
      <path
         fill="#b0d3e0"
         d="m 938.215,884.77075 c 26.21,3.63 10.534,30.82 8.806,49.93 -1.274,14.09 -3.053,38.77 -22.011,33.83 -18.382,-4.79 -43.879,-6.21 -61.333,-13.87 -7.756,-3.38 4.447,-66.88 9.185,-75.57 1.612,-2.95 5.441,-3.59 8.26,-4.09 18.783,2.12 38.451,6.16 57.093,9.77 z"
         id="path131" />
      <path
         fill="#86abc5"
         d="m 938.215,884.77075 c 26.21,3.63 10.534,30.82 8.806,49.93 -1.274,14.09 -3.053,38.77 -22.011,33.83 -18.382,-4.79 -43.879,-6.21 -61.333,-13.87 -7.756,-3.38 4.447,-66.88 9.185,-75.57 1.612,-2.95 5.441,-3.59 8.26,-4.09 -4.345,9.95 -11.535,52.93 -10.049,63.28 5.131,7.26 47.396,12.79 56.561,11.05 6.869,-5.15 13.152,-55.33 10.581,-64.56 z"
         id="path132"
         style="fill:#8da7ce;fill-opacity:1" />
      <path
         fill="#8da7ce"
         d="m 654.75,645.34475 c 8.785,-0.037 52.684,8.067 62.325,10.534 4.368,0.942 12.213,3.287 12.282,9.327 0.161,14.088 -3.369,28.374 -5.523,42.337 -1.302,8.445 -3.081,22.768 -8.157,29.521 -4.556,2.043 -9.867,1.642 -14.738,1.142 -10.483,-1.077 -49.813,-7.046 -57.795,-10.688 -1.749,-0.797 -2.996,-1.731 -4.044,-3.369 -4.837,-7.561 5.19,-59.743 8.477,-70.058 1.431,-4.493 3.037,-6.494 7.173,-8.746 z"
         id="path133"
         style="opacity:1" />
      <path
         fill="#7892c0"
         d="m 717.075,655.87875 c 4.368,0.942 12.213,3.287 12.282,9.327 0.161,14.088 -3.369,28.374 -5.523,42.337 -1.302,8.445 -3.081,22.768 -8.157,29.521 -4.556,2.043 -9.867,1.642 -14.738,1.142 -10.483,-1.077 -49.813,-7.046 -57.795,-10.688 -1.749,-0.797 -2.996,-1.731 -4.044,-3.369 -4.837,-7.561 5.19,-59.743 8.477,-70.058 1.431,-4.493 3.037,-6.494 7.173,-8.746 -2.114,17.244 -4.407,34.463 -6.617,51.7 -0.44,3.436 -1.931,10.648 0.892,13.412 6.528,5.731 16.709,6.223 24.926,7.722 8.602,1.058 24.506,5.269 32.032,0.431 4.46,-7.076 11.319,-54.398 11.092,-62.731 z"
         id="path134" />
      <path
         fill="#b0d3e0"
         d="m 564.04,629.63475 c 10.567,-0.738 45.361,6.844 57.27,8.889 3.328,0.558 13.986,2.177 14.884,5.789 2.842,11.433 -5.695,71.668 -14.342,76.809 -11.614,2.194 -57.265,-5.626 -69.644,-9.806 -3.152,-1.065 -5.351,-2.87 -6.61,-6.071 -2.72,-6.917 6.78,-61.796 10.362,-69.931 1.559,-3.543 4.736,-4.444 8.08,-5.679 z"
         id="path135" />
      <path
         fill="#86abc5"
         d="m 564.04,629.63475 c -1.622,8.693 -11.2,55.278 -7.978,62.332 2.456,5.377 47.711,13.041 55.208,10.795 8.252,-8.085 10.59,-44.164 12.649,-56.748 0.42,-2.564 -1.291,-5.337 -2.609,-7.49 3.328,0.558 13.986,2.177 14.884,5.789 2.842,11.433 -5.695,71.668 -14.342,76.809 -11.614,2.194 -57.265,-5.626 -69.644,-9.806 -3.152,-1.065 -5.351,-2.87 -6.61,-6.071 -2.72,-6.917 6.78,-61.796 10.362,-69.931 1.559,-3.543 4.736,-4.444 8.08,-5.679 z"
         id="path136"
         style="fill:#8da7ce;fill-opacity:1" />
      <path
         fill="#b0d3e0"
         d="m 813.157,579.39875 c 8.816,0.124 49.906,7.481 59.75,10.246 3.279,0.64 11.511,2.583 12.214,5.946 3.183,20.293 -5.649,44.145 -8.449,64.763 -2.97,21.88 -31.599,7.389 -46.245,7.047 -6.049,-1.034 -24.33,-4.064 -28.96,-5.769 -17.721,-6.523 2.242,-60.531 3.723,-75.243 0.33,-3.279 5.711,-6.144 7.967,-6.99 z"
         id="path137" />
      <path
         fill="#86abc5"
         d="m 872.907,589.64475 c 3.279,0.64 11.511,2.583 12.214,5.946 3.183,20.293 -5.649,44.145 -8.449,64.763 -2.97,21.88 -31.599,7.389 -46.245,7.047 -6.049,-1.034 -24.33,-4.064 -28.96,-5.769 -17.721,-6.523 2.242,-60.531 3.723,-75.243 0.33,-3.279 5.711,-6.144 7.967,-6.99 -2.31,10.076 -11.482,55.096 -8.257,63.088 6.999,6.033 53.863,15.696 56.36,10.123 6.439,-14.369 12.033,-47.205 11.647,-62.965 z"
         id="path138"
         style="fill:#8da7ce;fill-opacity:1" />
      <path
         fill="#b0d3e0"
         d="m 629.578,545.38175 c 9.976,0.577 47.026,8.033 57.945,10.756 4.671,0.81 9.396,1.542 12.423,5.613 5.269,7.087 -1.58,32.857 -3.205,41.95 -1.246,6.977 -3.817,30.931 -10.177,34.249 -8.022,4.185 -60.625,-6.646 -71.169,-10.241 -2.496,-0.851 -4.752,-2.243 -5.737,-4.827 -2.143,-5.624 8.211,-65.219 11.944,-71.877 1.94,-3.459 4.313,-4.484 7.976,-5.623 z"
         id="path139" />
      <path
         fill="#86abc5"
         d="m 687.523,556.13775 c 4.671,0.81 9.396,1.542 12.423,5.613 5.269,7.087 -1.58,32.857 -3.205,41.95 -1.246,6.977 -3.817,30.931 -10.177,34.249 -8.022,4.185 -60.625,-6.646 -71.169,-10.241 -2.496,-0.851 -4.752,-2.243 -5.737,-4.827 -2.143,-5.624 8.211,-65.219 11.944,-71.877 1.94,-3.459 4.313,-4.484 7.976,-5.623 -2.572,11.671 -12.766,53.957 -9.441,62.963 7.675,7.938 46.89,14.8 56.516,10.523 5.554,-6.976 12.234,-50.979 11.259,-59.717 -0.116,-1.006 -0.246,-2.011 -0.389,-3.013 z"
         id="path140"
         style="fill:#8da7ce;fill-opacity:1" />
      <path
         fill="#8da7ce"
         d="m 538.082,718.35075 c 3.525,1.077 13.887,1.477 14.244,7 1.482,22.951 -6.387,48.363 -10.303,71.073 -0.33,1.918 -3.947,4.577 -5.87,5.132 -13.34,0.017 -64.777,-8.955 -73.614,-14.396 -0.684,-1.299 -1.147,-2.493 -1.337,-3.96 -1.082,-8.367 8.044,-67.256 12.933,-72.403 2.157,-2.27 5.01,-2.353 7.916,-2.607 12.985,1.435 43.511,6.464 56.031,10.161 z"
         id="path141"
         style="opacity:1" />
      <path
         fill="#7892c0"
         d="m 538.082,718.35075 c 3.525,1.077 13.887,1.477 14.244,7 1.482,22.951 -6.387,48.363 -10.303,71.073 -0.33,1.918 -3.947,4.577 -5.87,5.132 -13.34,0.017 -64.777,-8.955 -73.614,-14.396 -0.684,-1.299 -1.147,-2.493 -1.337,-3.96 -1.082,-8.367 8.044,-67.256 12.933,-72.403 2.157,-2.27 5.01,-2.353 7.916,-2.607 0.363,4.22 -4.486,6.414 -4.698,9.642 -1.099,16.67 -8.257,39.98 -6.222,56.016 11.146,3.334 46.782,11.706 57.005,7.704 5.901,-5.321 13.007,-54.512 9.946,-63.201 z"
         id="path142" />
      <path
         fill="#8da7ce"
         d="m 471.946,612.55075 c 10.869,0.261 49.655,7.574 60.181,10.407 3.847,0.602 10.07,2.52 12.113,6.189 1.894,3.4 0.692,9.848 0.233,13.614 -1.224,10.036 -7.599,58.578 -15.207,62.41 -2.847,1.433 -8.045,0.883 -11.076,0.548 -7.652,-0.845 -53.838,-8.974 -58.542,-11.063 -3.025,-1.344 -5.376,-3.394 -6.474,-6.614 -1.738,-5.101 8.658,-63.186 11.669,-69.74 1.652,-3.597 3.646,-4.458 7.103,-5.751 z"
         id="path143"
         style="opacity:1" />
      <path
         fill="#7892c0"
         d="m 532.127,622.95775 c 3.847,0.602 10.07,2.52 12.113,6.189 1.894,3.4 0.692,9.848 0.233,13.614 -1.224,10.036 -7.599,58.578 -15.207,62.41 -2.847,1.433 -8.045,0.883 -11.076,0.548 -7.652,-0.845 -53.838,-8.974 -58.542,-11.063 -3.025,-1.344 -5.376,-3.394 -6.474,-6.614 -1.738,-5.101 8.658,-63.186 11.669,-69.74 1.652,-3.597 3.646,-4.458 7.103,-5.751 -1.566,8.108 -11.502,58.072 -8.062,64.088 3.011,5.267 49.889,12.888 56.16,8.947 5.886,-9.092 10.834,-50.246 12.083,-62.628 z"
         id="path144" />
      <path
         fill="#3a526e"
         d="m 507.677,604.26975 c 3.955,1.425 8.3,6.109 8.958,10.217 -3.552,-1.963 -8.484,-4.172 -10.179,-7.833 z"
         id="path145" />
      <path
         style="fill:none;stroke:#f6732c;stroke-width:14.2941;stroke-linecap:round;stroke-miterlimit:21;stroke-dasharray:none;stroke-opacity:1"
         id="path199"
         sodipodi:type="arc"
         sodipodi:cx="-1024.0331"
         sodipodi:cy="-605.66266"
         sodipodi:rx="460.38226"
         sodipodi:ry="234.06839"
         sodipodi:start="0.65334457"
         sodipodi:end="2.5007479"
         sodipodi:open="true"
         sodipodi:arc-type="arc"
         d="m -658.46412,-463.38522 a 460.38226,234.06839 0 0 1 -368.44628,91.78638 460.38226,234.06839 0 0 1 -366.161,-94.12069"
         transform="scale(-1)" />
    </g>
  </g>
  <g
     id="g9"
     transform="matrix(0.68638356,0,0,0.68638356,685.12106,-756.30076)"
     style="display:block">
    <g
       id="g8"
       transform="translate(5.2569256,58.470867)">
      <g
         id="g7">
        <g
           id="g6">
          <g
             id="g5">
            <g
               id="g4">
              <g
                 id="g3">
                <g
                   id="g2">
                  <g
                     id="g1">
                    <text
                       xml:space="preserve"
                       style="font-size:360px;letter-spacing:-5.56px;writing-mode:lr-tb;direction:ltr;fill:#f6732c;fill-opacity:1;stroke-width:13.296;stroke-linecap:round;stroke-miterlimit:22.2"
                       x="319.61011"
                       y="1495.6583"
                       id="text1"><tspan
                         sodipodi:role="line"
                         id="tspan1"
                         style="font-style:normal;font-variant:normal;font-weight:bold;font-stretch:normal;font-size:360px;font-family:Manrope;-inkscape-font-specification:'Manrope Bold';letter-spacing:-5.56px;fill:#f6732c;fill-opacity:1;stroke-width:13.296"
                         x="319.61011"
                         y="1495.6583"><tspan
   style="font-style:normal;font-variant:normal;font-weight:bold;font-stretch:normal;font-size:360px;font-family:Manrope;-inkscape-font-specification:'Manrope Bold';letter-spacing:-5.56px;fill:#4b6f9c;fill-opacity:1"
   id="tspan3">Funkee</tspan>B</tspan></text>
                  </g>
                </g>
              </g>
            </g>
          </g>
        </g>
      </g>
    </g>
    <text
       xml:space="preserve"
       style="font-style:normal;font-variant:normal;font-weight:bold;font-stretch:normal;font-size:93.3333px;font-family:Quicksand;-inkscape-font-specification:'Quicksand Bold';letter-spacing:-5.56px;writing-mode:lr-tb;direction:ltr;fill:#f6732c;fill-opacity:1;stroke-width:13.296;stroke-linecap:round;stroke-miterlimit:22.2"
       x="394.54025"
       y="2044.5387"
       id="text7"><tspan
         sodipodi:role="line"
         id="tspan7"
         style="font-style:normal;font-variant:normal;font-weight:normal;font-stretch:normal;font-size:93.3333px;font-family:manro;-inkscape-font-specification:manro;fill:#f6732c;fill-opacity:1;stroke-width:13.296"
         x="394.54025"
         y="2044.5387"><tspan
   style="font-style:normal;font-variant:normal;font-weight:normal;font-stretch:normal;font-size:93.3333px;font-family:manro;-inkscape-font-specification:manro;fill:#4b6f9c;fill-opacity:1"
   id="tspan10">ergonomical</tspan> • <tspan
   style="font-style:normal;font-variant:normal;font-weight:normal;font-stretch:normal;font-size:93.3333px;font-family:manro;-inkscape-font-specification:manro;fill:#4b6f9c;fill-opacity:1"
   id="tspan9">split</tspan> • <tspan
   style="font-style:normal;font-variant:normal;font-weight:normal;font-stretch:normal;font-size:93.3333px;font-family:manro;-inkscape-font-specification:manro;fill:#4b6f9c;fill-opacity:1"
   id="tspan8">keyboards</tspan></tspan></text>
  </g>
</svg>
